<?xml version="1.0" encoding="utf-8" ?>
<svg baseProfile="full" height="200mm" version="1.1" viewBox="0,0,200,200" width="200mm" xmlns="http://www.w3.org/2000/svg" xmlns:ev="http://www.w3.org/2001/xml-events" xmlns:xlink="http://www.w3.org/1999/xlink"><defs /><rect fill="#1a1a1a" height="200" width="200" x="0" y="0" /><text alignment-baseline="middle" fill="#e1ed5e" style="dominant-baseline: central; font-size:9.0px; font-family:Arial;" text-anchor="middle" x="100.0" y="100.0">2025</text><line stroke="#e1ed5e" stroke-width="0.3" x1="100.0" x2="100.0" y1="15.0" y2="10.0" /><path d="M 100.0 14.0 a86.0,86.0 0 0,1 42.46469731375804,11.215312516191453" fill="none" id="id25" stroke="none" /><text fill="#e1ed5e" style="font-size:6.75px; font-family:Arial;" text-anchor="middle"><textPath startOffset="22.20632615414155" xlink:href="#id25">January</textPath></text><path d="M 100.0 79.0 l 0.0 -19.121369573913306 a40.121369573913306,40.121369573913306 0 0,0 0.690623423935639,0.0059444138474104465 l -0.3291429446631106 19.118536536674455" fill="#ffde14" stroke="none" /><path d="M 100.72285384407766 79.0124445844662 l 0.8814880896754868 -25.593389703561858 a46.608565320427964,46.608565320427964 0 0,0 0.8015766978406301,0.034517578770391785 l -1.3219056199054484 25.57442439826727" fill="#cfff1d" stroke="none" /><path d="M 101.44485096284872 79.0497635885617 l 2.1511439035935016 -31.19143392232824 a52.265523667850765,52.265523667850765 0 0,0 0.8970003565718176,0.06962449148527272 l -2.6877344495276603 31.149784168654502" fill="#8dff24" stroke="none" /><path d="M 103.95276090670814 79.375362276772 l 1.447176606619255 -7.551049491103594 a28.688476347615428,28.688476347615428 0 0,0 0.4841980799429898,0.09712557973752554 l -1.5769410960293704 7.52501995528886" fill="#ff4006" stroke="none" /><path d="M 104.307194497241 79.44645832069477 l 3.1232388697565 -14.903812754470671 a36.22754923347419,36.22754923347419 0 0,0 0.6092391713279853,0.13315608561388093 l -3.3793207652380133 14.84784317076092" fill="#ffaa0f" stroke="none" /><path d="M 107.4271985657038 80.35727306442388 l 7.885234302305496 -20.854094966363366 a43.29507113396046,43.29507113396046 0 0,0 0.694817516413411,0.2695784017306242 l -8.243034983718573 20.715273860742194" fill="#f8ff18" stroke="none" /><path d="M 107.76421540070413 80.48803036053334 l 5.475097217744579 -13.759269310852995 a35.808584723474944,35.808584723474944 0 0,0 0.5707481387694245,0.2328224964363566 l -5.711129226102391 13.66298592823306" fill="#ffa40f" stroke="none" /><path d="M 108.43124777332544 80.76684994638697 l 8.003259364559115 -18.256833675739227 a40.93399448981586,40.93399448981586 0 0,0 0.6428934926344552,0.2884475702495753 l -8.31633497566035 18.11636577497312" fill="#ffe815" stroke="none" /><line stroke="#e1ed5e" stroke-width="0.3" x1="143.23703022742887" x2="145.7803849466894" y1="26.81831364943548" y2="22.513508569990506" /><path d="M 143.74570117128098 25.957352633546492 a86.0,86.0 0 0,1 28.547481713284135,27.462654790039103" fill="none" id="id26" stroke="none" /><text fill="#e1ed5e" style="font-size:6.75px; font-family:Arial;" text-anchor="middle"><textPath startOffset="19.985693538727396" xlink:href="#id26">February</textPath></text><path d="M 113.06298171725822 83.55741782278167 l 14.701372503209992 -18.50485063318793 a44.6338708305418,44.6338708305418 0 0,0 0.5974490190179426,0.4830955569182176 l -15.017724920792427 18.249048979005583" fill="#e7ff1a" stroke="none" /><path d="M 114.94478906791727 85.2469230424477 l 12.99294586741312 -12.826272048145444 a39.25732447448324,39.25732447448324 0 0,0 0.4705938800776189,0.48498835978989263 l -13.211804011193847 12.600719492805437" fill="#ffd313" stroke="none" /><path d="M 116.38621287248628 86.86637796730983 l 28.8169796520775 -23.09693654166985 a57.93083797963665,57.93083797963665 0 0,0 0.6169521677103783,0.7834666005186194 l -29.21028590038184 22.597477547198196" fill="#4fff2b" stroke="none" /><path d="M 116.60985879189232 87.15038557335679 l 17.642632064270824 -13.64858198599923 a43.305744918827074,43.305744918827074 0 0,0 0.45104801620308693,0.5935263180690955 l -17.874956020698026 13.3428708920491" fill="#f8ff18" stroke="none" /><path d="M 117.04232023915458 87.72973835380427 l 14.519513342047293 -10.453871607988754 a38.89133028274317,38.89133028274317 0 0,0 0.3864823728117898,0.5466519079194959 l -14.697308334662967 10.202393199737466" fill="#ffce13" stroke="none" /><path d="M 117.45458315368197 88.32363383020206 l 9.860290854583997 -6.596110920846936 a32.86313681186848,32.86313681186848 0 0,0 0.3104836626746449,0.4728879193131899 l -9.972371152616565 6.425404937556072" fill="#ff7c0b" stroke="none" /><path d="M 117.65298651832404 88.62581576622439 l 10.671984189765672 -6.8761800836553 a33.69539676770546,33.69539676770546 0 0,0 0.30995337090780567,0.4902717973131208 l -10.788765156919432 6.691460638627973" fill="#ff870c" stroke="none" /><line stroke="#e1ed5e" stroke-width="0.3" x1="172.23445277983987" x2="176.4835382374775" y1="55.19839476539836" y2="52.563006222186495" /><path d="M 173.08426987136738 54.67131705675599 a86.0,86.0 0 0,1 12.851231095245387,41.99856678651699" fill="none" id="id27" stroke="none" /><text fill="#e1ed5e" style="font-size:6.75px; font-family:Arial;" text-anchor="middle"><textPath startOffset="22.20632615414155" xlink:href="#id27">March</textPath></text><path d="M 117.84615892207809 88.93136811851018 l 15.383640739056338 -9.54131682235837 a39.102296238128815,39.102296238128815 0 0,0 0.3498430339941153,0.5750499628541754 l -15.545599571336677 9.275099086297114" fill="#ffd013" stroke="none" /><path d="M 119.04729006885535 91.15688171328212 l 41.239975316534434 -19.146554630453828 a66.4678580793655,66.4678580793655 0 0,0 0.4728639996888706,1.0418931428160192 l -41.563441633186656 18.433839478795747" fill="#36ff72" stroke="none" /><path d="M 119.196687751892 91.48605970444005 l 16.293386049668296 -7.226294339538494 a38.82396585626138,38.82396585626138 0 0,0 0.2656840273473963,0.6132353659553537 l -16.415360786858372 6.9447598289965375" fill="#ffcd13" stroke="none" /><path d="M 119.97218684219823 93.5106431181261 l 30.461180387673984 -9.897437478458796 a53.02878048334677,53.02878048334677 0 0,0 0.27459948000112067,0.8705553926782739 l -30.62703535144331 9.371631919354103" fill="#84ff25" stroke="none" /><path d="M 120.67395015179393 96.31383870115 l 43.6232808177013 -7.778022501670901 a65.31126564810043,65.31126564810043 0 0,0 0.18781075020223761,1.1084696790506006 l -43.750703429423766 7.025967034304463" fill="#35ff64" stroke="none" /><path d="M 120.73433829027371 96.67025291283417 l 8.82716251749429 -1.4175624159828446 a29.94026181459264,29.94026181459264 0 0,0 0.07733727392028683,0.50955600703566 l -8.850255684853877 1.2654072965551026" fill="#ff5207" stroke="none" /><path d="M 120.96714384426684 98.82574320788733 l 36.897142078476485 -2.0664101900099374 a57.95496102869893,57.95496102869893 0 0,0 0.04720953657949372,0.9965187020742892 l -36.927245223289475 1.4309803813126485" fill="#4fff2b" stroke="none" /><line stroke="#e1ed5e" stroke-width="0.3" x1="184.98032266829074" x2="189.97916517819016" y1="98.17113171792111" y2="98.06355123074" /><path d="M 185.9800911702706 98.14961562048488 a86.0,86.0 0 0,1 -9.607161424134198,41.387399972396054" fill="none" id="id28" stroke="none" /><text fill="#e1ed5e" style="font-size:6.75px; font-family:Arial;" text-anchor="middle"><textPath startOffset="21.466115282336823" xlink:href="#id28">April</textPath></text><path d="M 120.99513854157772 99.54816195383933 l 7.400947328100384 -0.15927637599745018 a28.402661029472245,28.402661029472245 0 0,0 0.006312143660118326,0.4888824827025385 l -7.402592478878217 0.031857635234448976" fill="#ff3c05" stroke="none" /><path d="M 120.9764740272857 100.99374915477107 l 11.49810965379969 0.544716749586488 a32.51100525358588,32.51100525358588 0 0,0 -0.03129362154712745,0.5587686345898469 l -11.487029681365033 -0.7425571005117583" fill="#ff770a" stroke="none" /><path d="M 120.8583938346157 102.4346265915055 l 5.888858173151335 0.6873573687234458 a26.928837216168926,26.928837216168926 0 0,0 -0.05770271583166236,0.45994741938688793 l -5.876153948072825 -0.7886225423977287" fill="#ff2603" stroke="none" /><path d="M 120.5718875245553 104.21870165774334 l 16.367792185328444 3.356562782264007 a37.708415087415645,37.708415087415645 0 0,0 -0.1358687369412866,0.6347335059581077 l -16.307589409662715 -3.637810107638284" fill="#ffbe11" stroke="none" /><path d="M 120.41448212921028 104.9243191809786 l 14.518515357455017 3.502112039949838 a35.9349280856996,35.9349280856996 0 0,0 -0.15022286226405107,0.6000656606148324 l -14.456081180895906 -3.751505539962066" fill="#ffa60f" stroke="none" /><path d="M 120.23288151984713 105.62410040840565 l 8.712478141738444 2.421793051430214 a30.04280691788926,30.04280691788926 0 0,0 -0.14278539709593227,0.4970546989752311 l -8.669500107756413 -2.5714052259100266" fill="#ff5407" stroke="none" /><path d="M 120.13307415673323 105.97154293290107 l 7.5306201191018936 2.233609284032075 a28.854887001856646,28.854887001856646 0 0,0 -0.1453368822455818,0.4749693403142896 l -7.491056464350179 -2.362905596898422" fill="#ff4306" stroke="none" /><path d="M 120.02730092923936 106.31721596034902 l 60.08190278771807 18.951647881047055 a84.0,84.0 0 0,0 -0.4468309959350121,1.375204400088819 l -59.746779540766816 -19.98305118111367" fill="#4dd2ff" stroke="none" /><path d="M 119.12269723197855 108.67885076344098 l 6.7581453256498705 3.0671894245586464 a28.4216021995744,28.4216021995744 0 0,0 -0.20602329927886215,0.44375585795353784 l -6.704347409531176 -3.183065349791015" fill="#ff3c05" stroke="none" /><line stroke="#e1ed5e" stroke-width="0.3" x1="174.80103733775053" x2="179.2010983576182" y1="140.37084112569926" y2="142.7455964860345" /><path d="M 175.68104954172406 140.8457921977663 a86.0,86.0 0 0,1 -30.038265399797805,32.042727171017184" fill="none" id="id29" stroke="none" /><text fill="#e1ed5e" style="font-size:6.75px; font-family:Arial;" text-anchor="middle"><textPath startOffset="22.206326154141568" xlink:href="#id29">May</textPath></text><path d="M 118.30583269289576 110.29060199501025 l 27.349316101614036 15.374385397210503 a52.37446123151702,52.37446123151702 0 0,0 -0.4485448716706153,0.7820757917174669 l -27.080619233791044 -15.842881034786286" fill="#8cff24" stroke="none" /><path d="M 117.94076556474637 110.91462005526583 l 6.760928056325587 4.11314448591781 a28.913792121659917,28.913792121659917 0 0,0 -0.2623380857364804,0.4229725244721799 l -6.689125330921144 -4.228913341755264" fill="#ff4306" stroke="none" /><path d="M 112.92097659922987 116.55440617244103 l 23.869021661408354 30.5810846794118 a59.79346511001739,59.79346511001739 0 0,0 -0.8168108268519336,0.6262957114295965 l -23.33908210606293 -30.987419732668766" fill="#3cff2e" stroke="none" /><path d="M 112.04921762599082 117.19931262002967 l 8.585638378341326 12.255325042274205 a35.963494854326,35.963494854326 0 0,0 -0.510070445107684,0.3508311032157011 l -8.373411048610757 -12.401296934854999" fill="#ffa70f" stroke="none" /><path d="M 111.7513745106137 117.40417183066458 l 7.665762776761314 11.353246589100392 a34.69890970342162,34.69890970342162 0 0,0 -0.49788854379896674,0.3299733777974739 l -7.469199534222383 -11.483517987989185" fill="#ff950d" stroke="none" /><path d="M 111.45004920935366 117.60387380957326 l 6.275758434824364 9.648662422844673 a32.51007517274687,32.51007517274687 0 0,0 -0.47173388199801203,0.30108288280726603 l -6.108742750779421 -9.755259734475748" fill="#ff770a" stroke="none" /><line stroke="#e1ed5e" stroke-width="0.3" x1="143.8653032363475" x2="146.44561519142675" y1="172.8068346515853" y2="177.08958963109032" /><path d="M 144.38136562736335 173.6633856474863 a86.0,86.0 0 0,1 -40.68145358897372,12.25698825130547" fill="none" id="id30" stroke="none" /><text fill="#e1ed5e" style="font-size:6.75px; font-family:Arial;" text-anchor="middle"><textPath startOffset="21.466115282336833" xlink:href="#id30">June</textPath></text><path d="M 110.8373102113329 117.98757091392108 l 3.11365144001427 5.1679821825088 a27.033478692150272,27.033478692150272 0 0,0 -0.40065176794603796,0.2367121265609092 l -3.02423180103985 -5.220812881363459" fill="#ff2803" stroke="none" /><path d="M 109.2508944713604 118.85261126421891 l 6.979098763208876 14.222866379538237 a36.842908432381435,36.842908432381435 0 0,0 -0.5717446253400245,0.27447216502687494 l -6.733241469868619 -14.34089282106467" fill="#ffb210" stroke="none" /><path d="M 107.93186726928326 119.44442032107085 l 5.952425987764936 14.5919578463427 a36.75933402556281,36.75933402556281 0 0,0 -0.5879374075201738,0.2339524280975158 l -5.700367504202897 -14.692257118846284" fill="#ffb110" stroke="none" /><path d="M 107.2578585660854 119.70592522655815 l 2.8202671460845887 7.657351406564661 a29.16020449124297,29.16020449124297 0 0,0 -0.47250700935271134,0.16942420255972157 l -2.6880405761021424 -7.704763150164343" fill="#ff4706" stroke="none" /><path d="M 106.57524785965236 119.94407469862006 l 11.870139544282448 36.00456664256144 a58.91080363061941,58.91080363061941 0 0,0 -0.9657967730267332,0.30921762786629525 l -11.248621426164775 -36.20355711708744" fill="#45ff2d" stroke="none" /><path d="M 105.18746579009965 120.34920634021253 l 3.660743899199129 14.360235995319437 a35.819494719348285,35.819494719348285 0 0,0 -0.5987769506373862,0.147164806295839 l -3.4130136638185316 -14.421122059929306" fill="#ffa50f" stroke="none" /><path d="M 104.83641907484287 120.43548508189849 l 2.1567035079992065 9.112792270845114 a30.36452630905539,30.36452630905539 0 0,0 -0.5096611284367787,0.11599721351803625 l -1.9995222301695659 -9.148566217940836" fill="#ff5808" stroke="none" /><path d="M 104.48393922423573 120.51570834832081 l 1.7036710150175995 7.794935639776923 a28.978942069953607,28.978942069953607 0 0,0 -0.4882379591949048,0.10231501139805176 l -1.5692415943933167 -7.823106631901515" fill="#ff4406" stroke="none" /><path d="M 102.70371172650421 120.8252237178851 l 1.0565341415928375 8.137908952557956 a29.206206584803617,29.206206584803617 0 0,0 -0.49910983904677236,0.06043525071813407 l -0.9162968794946847 -8.154889732001442" fill="#ff4806" stroke="none" /><path d="M 102.34483914955558 120.86867818915974 l 0.8312108505015686 7.397638234478727 a28.444189877092946,28.444189877092946 0 0,0 -0.4870287378935006,0.05048252002302751 l -0.7037495160024654 -7.4108501229575126" fill="#ff3d05" stroke="none" /><path d="M 100.90346689309514 120.98055641714683 l 0.31942854990287595 7.417857548189026 a28.42473199541357,28.42473199541357 0 0,0 -0.4890131990021559,0.016842603328723452 l -0.19169499922606778 -7.4222569499438436" fill="#ff3c05" stroke="none" /><line stroke="#e1ed5e" stroke-width="0.3" x1="102.19456741930631" x2="102.32365962044197" y1="184.97166512339345" y2="189.96999836594603" /><path d="M 102.22038585953345 185.97133177190398 a86.0,86.0 0 0,1 -42.740103519485714,-10.115201625700543" fill="none" id="id31" stroke="none" /><text fill="#e1ed5e" style="font-size:6.75px; font-family:Arial;" text-anchor="middle"><textPath startOffset="22.20632615414155" xlink:href="#id31">July</textPath></text><path d="M 100.54218724476979 120.99299961872073 l 0.1915989462798754 7.41853786676318 a28.421011672057574,28.421011672057574 0 0,0 -0.4891666320148854,0.008421447184697464 l -0.06387262437232205 -7.420736791227037" fill="#ff3c05" stroke="none" /><path d="M 98.37488393609728 120.93702456842531 l -0.8270325700017999 10.654993585770223 a31.687042209360285,31.687042209360285 0 0,0 -0.5434413478887962,-0.046890406177782104 l 1.0103182356321376 -10.639178927313777" fill="#ff6b09" stroke="none" /><path d="M 98.01472825383883 120.90594882070398 l -1.1796652901551954 12.422491897763205 a33.47837790527236,33.47837790527236 0 0,0 -0.5732254006312123,-0.059417156552676514 l 1.393323287392001 -12.400345372754767" fill="#ff840c" stroke="none" /><path d="M 97.65516085044442 120.86867818915974 l -0.8299596823365447 7.3865030460367755 a28.432984617461194,28.432984617461194 0 0,0 -0.4858961171432622,-0.05883525301486061 l 0.9569832225311963 -7.371122264296567" fill="#ff3c05" stroke="none" /><path d="M 97.2962882734958 120.8252237178851 l -0.9564833296106579 7.367271860496802 a28.429101899038073,28.429101899038073 0 0,0 -0.4847451699181762,-0.06718126354260835 l 1.0831570907156651 -7.349716031461589" fill="#ff3c05" stroke="none" /><path d="M 96.22490169976321 120.6578951692458 l -2.926815367958641 16.015965742464157 a37.281197955368775,37.281197955368775 0 0,0 -0.6302872686533058,-0.12079605513374539 l 3.2020702511836414 -15.963212488981945" fill="#ffb811" stroke="none" /><line stroke="#e1ed5e" stroke-width="0.3" x1="58.666819895761336" x2="56.23545636021788" y1="174.27360380694188" y2="178.64263932499728" /><path d="M 58.180547188652646 175.14741091055294 a86.0,86.0 0 0,1 -31.652253787137756,-30.449443065178592" fill="none" id="id32" stroke="none" /><text fill="#e1ed5e" style="font-size:6.75px; font-family:Arial;" text-anchor="middle"><textPath startOffset="22.20632615414155" xlink:href="#id32">August</textPath></text><path d="M 86.51685102203217 116.09983520530335 l -10.447097541866007 12.474574676332232 a37.27135090902572,37.27135090902572 0 0,0 -0.48831596998495624,-0.4161534634099122 l 10.66027898842802 -12.292896822699367" fill="#ffb811" stroke="none" /><path d="M 84.19399662182784 113.82643327865904 l -11.129618417710265 9.73572653299034 a35.78691236360748,35.78691236360748 0 0,0 -0.4015930456103909,-0.46714343948400844 l 11.295553972891435 -9.542705994344802" fill="#ffa40f" stroke="none" /><path d="M 83.72743513129214 113.27417163493432 l -14.936870080390555 12.184592824521571 a40.27626494157644,40.27626494157644 0 0,0 -0.43360676536300985,-0.5409911098784027 l 15.144394757808426 -11.925673881064908" fill="#ffe015" stroke="none" /><path d="M 82.44556493220864 111.52570212397912 l -10.257172105047719 6.734543712778219 a33.27043840341044,33.27043840341044 0 0,0 -0.3101995253667302,-0.4814365519971604 l 10.371576493791494 -6.55698556085961" fill="#ff820b" stroke="none" /><line stroke="#e1ed5e" stroke-width="0.3" x1="26.63291911575756" x2="22.317208475507996" y1="142.92168965132927" y2="145.44649492493687" /><path d="M 25.769776987707644 143.4266507060508 a86.0,86.0 0 0,1 -11.730757126820373,-40.83630448921669" fill="none" id="id33" stroke="none" /><text fill="#e1ed5e" style="font-size:6.75px; font-family:Arial;" text-anchor="middle"><textPath startOffset="21.46611528233685" xlink:href="#id33">September</textPath></text><path d="M 80.87730276802145 108.67885076344099 l -37.93210883472961 17.215516604461676 a62.6559586686979,62.6559586686979 0 0,0 -0.4372756827431488,-0.9859412271769579 l 38.22282560220404 -16.560027040792022" fill="#31ff44" stroke="none" /><path d="M 79.0095281055655 100.63252640178507 l -16.455846916847108 0.4958801160348924 a37.46331664155753,37.46331664155753 0 0,0 -0.013875587069035786,-0.6447440080256209 l 16.46194456660115 -0.21254629221914262" fill="#ffbb11" stroke="none" /><line stroke="#e1ed5e" stroke-width="0.3" x1="15.007084014347285" x2="10.007500721073583" y1="101.09737516637583" y2="101.16192664675087" /><path d="M 14.007167355692545 101.11028546245083 a86.0,86.0 0 0,1 10.666146001902534,-42.60595125391555" fill="none" id="id34" stroke="none" /><text fill="#e1ed5e" style="font-size:6.75px; font-family:Arial;" text-anchor="middle"><textPath startOffset="22.20632615414155" xlink:href="#id34">October</textPath></text><path d="M 79.00486145842228 99.54816195383935 l -3.386599769334271 -0.07288328295018293 a24.387383942010196,24.387383942010196 0 0,0 0.01264463275181439,-0.41961380211698107 l 3.3848434421268117 0.13116723249215842" fill="#ff0000" stroke="none" /><path d="M 79.62865764111835 94.90015583598534 l -8.740665630352186 -2.188173553772732 a30.0104017204035,30.0104017204035 0 0,0 0.12976450277420365,-0.5000355634611291 l 8.701704795707675 2.338305542782725" fill="#ff5307" stroke="none" /><path d="M 79.71946130924805 94.55025226153421 l -10.695317063163106 -2.874025235026267 a32.07473828734366,32.07473828734366 0 0,0 0.147869476039835,-0.531965180537022 l 10.64426081655691 3.0577017189822318" fill="#ff710a" stroke="none" /><path d="M 79.91906864156998 93.8553929516997 l -60.0859392611737 -18.385824805529207 a83.835966219014,83.835966219014 0 0,0 0.4341286471100896,-1.3763064476898006 l 59.76055513029541 19.417381419645423" fill="#4dd4ff" stroke="none" /><path d="M 80.38941819471856 92.48833698450439 l -11.91572212695427 -4.564213856207956 a33.75995618848232,33.75995618848232 0 0,0 0.21253733161089913,-0.5408843263947766 l 11.835391245461679 4.7686471874984955" fill="#ff880c" stroke="none" /><path d="M 80.65960295795068 91.81776055985345 l -14.417549549140425 -6.09955639973479 a36.6547220759573,36.6547220759573 0 0,0 0.250839242402364,-0.5789715555969286 l 14.310419596895379 6.346827099918318" fill="#ffb010" stroke="none" /><line stroke="#e1ed5e" stroke-width="0.3" x1="26.266209847984243" x2="21.928928074336255" y1="57.711370442889674" y2="55.22380399835377" /><path d="M 25.398753493254645 57.213857153982495 a86.0,86.0 0 0,1 29.58750427330803,-30.492523968695096" fill="none" id="id35" stroke="none" /><text fill="#e1ed5e" style="font-size:6.75px; font-family:Arial;" text-anchor="middle"><textPath startOffset="21.46611528233685" xlink:href="#id35">November</textPath></text><line stroke="#e1ed5e" stroke-width="0.3" x1="56.762969772571076" x2="54.21961505331055" y1="26.818313649435495" y2="22.513508569990535" /><path d="M 56.25429882871897 25.957352633546506 a86.0,86.0 0 0,1 42.265352541879196,-11.944610805530505" fill="none" id="id36" stroke="none" /><text fill="#e1ed5e" style="font-size:6.75px; font-family:Arial;" text-anchor="middle"><textPath startOffset="22.20632615414155" xlink:href="#id36">December</textPath></text></svg>