<?xml version="1.0" encoding="utf-8" ?>
<svg baseProfile="full" height="200mm" version="1.1" viewBox="0,0,200,200" width="200mm" xmlns="http://www.w3.org/2000/svg" xmlns:ev="http://www.w3.org/2001/xml-events" xmlns:xlink="http://www.w3.org/1999/xlink"><defs /><rect fill="#1a1a1a" height="200" width="200" x="0" y="0" /><text alignment-baseline="middle" fill="#e1ed5e" style="dominant-baseline: central; font-size:9.0px; font-family:Arial;" text-anchor="middle" x="100.0" y="100.0">2024</text><line stroke="#e1ed5e" stroke-width="0.3" x1="100.0" x2="100.0" y1="15.0" y2="10.0" /><path d="M 100.0 14.0 a86.0,86.0 0 0,1 42.35913384403234,11.155469271406648" fill="none" id="id13" stroke="none" /><text fill="#e1ed5e" style="font-size:6.75px; font-family:Arial;" text-anchor="middle"><textPath startOffset="22.145653131862478" xlink:href="#id13">January</textPath></text><path d="M 103.58742460773223 79.30868818359171 l 2.5732007693522934 -14.84153823612958 a36.062955201881586,36.062955201881586 0 0,0 0.6090608388386547,0.11099117372042629 l -2.827596341742002 14.795178888477787" fill="#ffb811" stroke="none" /><path d="M 103.94208987418118 79.37332000966035 l 3.1489275917984383 -16.476519770434884 a37.77472648730587,37.77472648730587 0 0,0 0.6358808843509274,0.12719398575299398 l -3.4313049616803224 16.42003638801903" fill="#ffce13" stroke="none" /><path d="M 104.64783097203109 79.52079915486377 l 3.7991344208763715 -16.739687245725687 a38.165388181820965,38.165388181820965 0 0,0 0.6376670263350842,0.1504876819377843 l -4.085933600951341 16.672003420141674" fill="#ffd313" stroke="none" /><path d="M 105.3480935250658 79.69241777938227 l 0.6391704492837984 -2.4270343050255843 a23.50978771632357,23.50978771632357 0 0,0 0.38938768703878246,0.10612934563255207 l -0.6807395372572737 2.4157044652488904" fill="#ff0a01" stroke="none" /><path d="M 107.06938296918511 80.22567764915836 l 1.593530436023547 -4.457388240976725 a25.73367184977275,25.73367184977275 0 0,0 0.4146930343683794,0.1522810263171149 l -1.6698126220460512 4.429376365650888" fill="#ff2a04" stroke="none" /><line stroke="#e1ed5e" stroke-width="0.3" x1="143.13028292997686" x2="145.6673583964461" y1="26.7553504044142" y2="22.446841604673864" /><path d="M 143.63769802327073 25.89364864446614 a86.0,86.0 0 0,1 29.32050498858742,28.57503671076993" fill="none" id="id14" stroke="none" /><text fill="#e1ed5e" style="font-size:6.75px; font-family:Arial;" text-anchor="middle"><textPath startOffset="20.669276256404974" xlink:href="#id14">February</textPath></text><path d="M 111.27062007382361 82.28071324371311 l 4.043353709168401 -6.3568236140130265 a28.53378495028359,28.53378495028359 0 0,0 0.4110419006452171,0.26643239393087315 l -4.151881242070625 6.286477378378259" fill="#ff5207" stroke="none" /><path d="M 112.45986205192187 83.09580414077388 l 5.970415923546438 -8.100015851869255 a31.06261015346764,31.06261015346764 0 0,0 0.42651479973249884,0.3200646571774293 l -6.108583712189702 7.996332167427811" fill="#ff750a" stroke="none" /><path d="M 113.31354834802062 83.75963576809568 l 5.93444556438997 -7.239058661204396 a30.36064177591826,30.36064177591826 0 0,0 0.4002192797567061,0.33387715746498103 l -6.057839178308568 7.136119319827545" fill="#ff6b09" stroke="none" /><path d="M 113.59037401385872 83.9905735841838 l 5.312330622945546 -6.257912116164503 a29.208673504356444,29.208673504356444 0 0,0 0.37946311909025165,0.3277712044868507 l -5.418973221798658 6.165796779212933" fill="#ff5b08" stroke="none" /><path d="M 114.39649973595853 84.71141617570332 l 6.909119944830774 -7.3372459532527055 a31.078249678916553,31.078249678916553 0 0,0 0.38526302297950044,0.3690732610122041 l -7.034055453675586 7.2175605619349215" fill="#ff750a" stroke="none" /><path d="M 114.65682725009322 84.96080404539774 l 4.2368769679407405 -4.34740901759599 a27.070509995687484,27.070509995687484 0 0,0 0.3300128230999338,0.32719221762906525 l -4.310881711170637 4.274036789738266" fill="#ff3d05" stroke="none" /><path d="M 114.91283532996326 85.21462403516908 l 9.608137144209547 -9.526016807371606 a34.53001461921847,34.53001461921847 0 0,0 0.41372416355479963,0.4245174389167304 l -9.770248108915158 9.359676676387133" fill="#ffa40f" stroke="none" /><path d="M 115.16444852881244 85.47280134310134 l 10.874788365803651 -10.417801256774865 a36.05960175524832,36.05960175524832 0 0,0 0.42437715293349254,0.45067383007930506 l -11.052021352473403 10.229585966751065" fill="#ffb811" stroke="none" /><path d="M 116.35404254752997 86.82634096563983 l 8.996882161366228 -7.24725141332453 a32.55277203416757,32.55277203416757 0 0,0 0.3468165657007589,0.4381914011595801 l -9.119965157708545 7.091740068250272" fill="#ff890c" stroke="none" /><path d="M 116.57777611688842 87.10902102172516 l 9.125376835253386 -7.095948221441378 a32.559627310028475,32.559627310028475 0 0,0 0.3393147645181164,0.44417391890448554 l -9.24584357712581 6.93825338929601" fill="#ff8a0c" stroke="none" /><path d="M 117.42321728460499 88.27688183743584 l 10.26857405298744 -6.909154894749468 a33.376592198231606,33.376592198231606 0 0,0 0.3157672943760875,0.4781119297952217 l -10.385665786284251 6.731863086615188" fill="#ff950d" stroke="none" /><path d="M 117.81537515405839 88.88188828441811 l 11.509447661560655 -7.182746575882451 a34.566843179146545,34.566843179146545 0 0,0 0.3098374882838879,0.5060962519205078 l -11.631053114299945 6.984113207837389" fill="#ffa40f" stroke="none" /><line stroke="#e1ed5e" stroke-width="0.3" x1="172.87174338648825" x2="177.1583165268699" y1="56.24261187166439" y2="53.66864786411523" /><path d="M 173.72905801456457 55.72781907015455 a86.0,86.0 0 0,1 12.242430191666344,42.057860355516425" fill="none" id="id15" stroke="none" /><text fill="#e1ed5e" style="font-size:6.75px; font-family:Arial;" text-anchor="middle"><textPath startOffset="22.145653131862474" xlink:href="#id15">March</textPath></text><path d="M 118.00360718960297 89.18935116829356 l 14.613988298198239 -8.77528007907911 a38.04623695852424,38.04623695852424 0 0,0 0.33141223668316905,0.5628104315234318 l -14.762474245011175 8.523118479262122" fill="#ffd213" stroke="none" /><path d="M 118.36410011445183 89.81374322990088 l 35.13856827041037 -19.490771489226436 a61.182199458709725,61.182199458709725 0 0,0 0.501561912265649,0.922817426473288 l -35.467975532291355 18.884699229278546" fill="#30ff38" stroke="none" /><path d="M 118.70294669586156 90.45014215332178 l 8.029726604395652 -4.100035618271664 a30.015919332626908,30.015919332626908 0 0,0 0.23037945157439554,0.4609132282252761 l -8.098925969181783 3.961590533882638" fill="#ff6709" stroke="none" /><path d="M 119.0197475246899 91.09779779509293 l 13.676230862180473 -6.40116659687922 a36.10013988003621,36.10013988003621 0 0,0 0.25788484775767295,0.5635249331555685 l -13.784100174793197 6.165452681508967" fill="#ffb911" stroke="none" /><path d="M 119.71291397450082 92.76114493625339 l 12.256669846039168 -4.500818940032822 a34.05692639351865,34.05692639351865 0 0,0 0.1968163236163507,0.5505302858908435 l -12.332126339699462 4.2897536977610615" fill="#ff9e0e" stroke="none" /><path d="M 120.05942366710727 93.78553927170692 l 16.21794510977213 -5.024360851581027 a37.97839643636824,37.97839643636824 0 0,0 0.18758376374958283,0.6244053412096203 l -16.301805193525343 4.745217906780683" fill="#ffd113" stroke="none" /><path d="M 120.26092885502905 94.47779374421319 l 42.63750174405421 -11.621040700890395 a65.19281776426999,65.19281776426999 0 0,0 0.2850184022257253,1.082261297499803 l -42.830709627084666 10.887398899017795" fill="#35ff68" stroke="none" /><path d="M 120.51834098615036 95.52812308129327 l 14.563428625305304 -3.1740314858152945 a35.90529869534015,35.90529869534015 0 0,0 0.12608280568234564,0.6033518676794843 l -14.615769141812017 2.9235631668504056" fill="#ffb610" stroke="none" /><path d="M 120.592083275326 95.88100663000786 l 15.60825593119885 -3.1220883209414225 a36.91744604820644,36.91744604820644 0 0,0 0.11896859302645545,0.6224939500567096 l -15.659550816507462 2.8536918058513985" fill="#ffc312" stroke="none" /><path d="M 120.65975698304385 96.23510406497455 l 23.261920929281857 -4.239096888671804 a44.64501866676591,44.64501866676591 0 0,0 0.13092722012644686,0.7551534131345449 l -23.331262966900535 3.839150442616666" fill="#dbff1b" stroke="none" /><path d="M 120.9064616781168 98.02013634271609 l 14.949019158543893 -1.415687656750726 a36.0159030811999,36.0159030811999 0 0,0 0.05300576616710304,0.6160073498345261 l -14.971118547408736 1.1588592595405378" fill="#ffb711" stroke="none" /><path d="M 120.93736805541906 98.37931529534042 l 17.307077099144646 -1.3396772250792994 a38.358849408389176,38.358849408389176 0 0,0 0.04518314231568078,0.6569529729333713 l -17.327524202625394 1.0423808279915938" fill="#ffd614" stroke="none" /><path d="M 120.99303781780057 99.45929381324524 l 37.79162734059783 -0.973378264162653 a58.80416064794675,58.80416064794675 0 0,0 0.017329217640611898,1.0093400504477559 l -37.80276798983711 0.32449129774583085" fill="#40ff2d" stroke="none" /><line stroke="#e1ed5e" stroke-width="0.3" x1="184.99686870605535" x2="189.99668451229388" y1="99.2704041080226" y2="99.22748670261217" /><path d="M 185.99683186730306 99.26182062694052 a86.0,86.0 0 0,1 -10.086455211305974,41.156179273409016" fill="none" id="id16" stroke="none" /><text fill="#e1ed5e" style="font-size:6.75px; font-family:Arial;" text-anchor="middle"><textPath startOffset="21.40746469413373" xlink:href="#id16">April</textPath></text><path d="M 120.99922638620191 100.18025310272382 l 14.91712425522244 0.12804557088290955 a35.91767380371244,35.91767380371244 0 0,0 -0.010584713388142477,0.6165064901792884 l -14.91272811023563 -0.384098977031269" fill="#ffb610" stroke="none" /><path d="M 120.96210409425399 101.26102812881392 l 19.465176647228017 1.170976690799597 a40.5003663636914,40.5003663636914 0 0,0 -0.047705649295301036,0.6936296708028501 l -19.44220703676765 -1.5049497857567906" fill="#fff116" stroke="none" /><path d="M 120.93736805541906 101.62068470465957 l 18.486499537665743 1.4309719810096453 a39.54179996566003,39.54179996566003 0 0,0 -0.05819494233091185,0.6763134426927161 l -18.45921097263709 -1.7481064710780188" fill="#ffe515" stroke="none" /><path d="M 120.86939407059847 102.33845913500097 l 14.980038275182642 1.678544534103986 a36.0737871312722,36.0737871312722 0 0,0 -0.07423970573936081,0.6148112624572044 l -14.949016483183618 -1.9354494734845988" fill="#ffb811" stroke="none" /><path d="M 120.82617615685814 102.69636545807757 l 15.884300312597514 2.0565406902368246 a37.01687722470848,37.01687722470848 0 0,0 -0.08699932719247218,0.6294837928983517 l -15.846656468849831 -2.3289127913352616" fill="#ffc412" stroke="none" /><path d="M 120.51834098615036 104.47187691870673 l 31.056038403616206 6.768519024873525 a52.78506522121607,52.78506522121607 0 0,0 -0.20055594650587336,0.8836865053604409 l -30.935271595552667 -7.300639864172983" fill="#7eff26" stroke="none" /><path d="M 120.35273937422433 105.17358676015961 l 11.588788913762956 2.945824824272014 a32.957337177777184,32.957337177777184 0 0,0 -0.14408715417072804,0.5471223935301021 l -11.536512278787498 -3.1443277221749195" fill="#ff8f0d" stroke="none" /><path d="M 119.94978838288452 106.5578916946017 l 4.813569331758331 1.582315848984617 a26.066968833295924,26.066968833295924 0 0,0 -0.14338642455545142,0.4238964861002288 l -4.785697485630515 -1.664714009559006" fill="#ff2f04" stroke="none" /><path d="M 119.83427380445688 106.89939002012753 l 7.120750116138346 2.476966526299909 a28.53926026801665,28.53926026801665 0 0,0 -0.16492951300943562,0.4613372015113575 l -7.077180433084967 -2.598838684192188" fill="#ff5207" stroke="none" /><path d="M 119.4528033332814 107.91128576633889 l 10.005863434856055 4.0692975514061525 a31.801689017874452,31.801689017874452 0 0,0 -0.2100034460412887,0.5039318214289027 l -9.934534144278281 -4.240461882276333" fill="#ff7f0b" stroke="none" /><path d="M 119.31412917781788 108.2440532568976 l 10.3827305753645 4.431770287299835 a32.289007134376455,32.289007134376455 0 0,0 -0.22197326731030612,0.5079182755125191 l -10.305123426037229 -4.609350632588199" fill="#ff860c" stroke="none" /><line stroke="#e1ed5e" stroke-width="0.3" x1="174.33088141563837" x2="178.70328620479359" y1="141.23008692659167" y2="143.65538615756765" /><path d="M 175.20536237346943 141.71514677278685 a86.0,86.0 0 0,1 -30.301960400862466,31.631185727798858" fill="none" id="id17" stroke="none" /><text fill="#e1ed5e" style="font-size:6.75px; font-family:Arial;" text-anchor="middle"><textPath startOffset="22.145653131862474" xlink:href="#id17">May</textPath></text><path d="M 118.36410011445183 110.18625677009912 l 13.211078036710303 7.327962287999377 a36.10733643586421,36.10733643586421 0 0,0 -0.3053075347122565,0.5394491598336032 l -13.083337136976668 -7.553668217932103" fill="#ffb911" stroke="none" /><path d="M 117.81537515405839 111.11811171558189 l 19.00914658190753 11.86311337751282 a43.407166549570036,43.407166549570036 0 0,0 -0.39992946590429834,0.6287555469202181 l -18.80269942437734 -12.18768259911171" fill="#eaff1a" stroke="none" /><path d="M 117.01052211995028 112.31430620078461 l 9.285014976235605 6.721634802857554 a32.462629608074465,32.462629608074465 0 0,0 -0.3306519481983502,0.448592871276407 l -9.168261008453428 -6.880033983402838" fill="#ff880c" stroke="none" /><path d="M 116.79662413953412 112.60449989151573 l 8.45871934284558 6.347580689640675 a31.575524267502256,31.575524267502256 0 0,0 -0.3290590976163831,0.4307489217187887 l -8.348508267874893 -6.49185052460034" fill="#ff7c0b" stroke="none" /><path d="M 116.57777611688842 112.89097897827486 l 11.802224477968773 9.177481139185083 a35.950540548370256,35.950540548370256 0 0,0 -0.38301632177391176,0.4839286104052748 l -11.6429417255533 -9.378729693505042" fill="#ffb710" stroke="none" /><path d="M 116.1254893667686 113.45245675266167 l 11.8421242674134 9.879121243620745 a36.42183334467793,36.42183334467793 0 0,0 -0.40463865363577217,0.4766633165335171 l -11.670791050270513 -10.080951342603818" fill="#ffbd11" stroke="none" /><path d="M 115.6541949942343 113.99807769240083 l 16.736189419146463 14.965603779065994 a43.4514884305149,43.4514884305149 0 0,0 -0.5019729045278749,0.551756154786137 l -16.476818813776706 -15.250697509409804" fill="#e9ff1a" stroke="none" /><path d="M 115.16444852881244 114.52719865689866 l 8.636895342318331 8.273950363464152 a32.96052740355661,32.96052740355661 0 0,0 -0.3949192255126362,0.40522191586084844 l -8.493589315654887 -8.420994971392739" fill="#ff8f0d" stroke="none" /><path d="M 114.65682725009322 115.03919595460226 l 8.358882117581363 8.576949429961202 a32.97643401767543,32.97643401767543 0 0,0 -0.4087939568022859,0.3916153633231749 l -8.210415674913763 -8.719176923589956" fill="#ff8f0d" stroke="none" /><path d="M 114.39649973595853 115.28858382429668 l 21.59961706539446 22.938044811835336 a52.50710010714165,52.50710010714165 0 0,0 -0.6615150229993754,0.612288429442363 l -21.202672271081116 -23.30545098741008" fill="#81ff25" stroke="none" /><path d="M 114.13192950727249 115.5334660781643 l 13.123022120717016 14.424500125779385 a40.50076699669625,40.50076699669625 0 0,0 -0.5182844063090375,0.4634531120217858 l -12.8734726875846 -14.647648767684558" fill="#fff116" stroke="none" /><path d="M 113.03279911837588 116.46651593811092 l 14.800123714440122 18.699472831298575 a44.84772412896473,44.84772412896473 0 0,0 -0.6077722044212368,0.4726073422352702 l -14.476941565383655 -18.95078122515464" fill="#d8ff1c" stroke="none" /><path d="M 111.8722381534696 117.32195027204791 l 8.597643900458081 12.544219394469236 a36.20779145226756,36.20779145226756 0 0,0 -0.5157088011039439,0.34699189673526804 l -8.381038811257135 -12.689960965261625" fill="#ffba11" stroke="none" /><line stroke="#e1ed5e" stroke-width="0.3" x1="143.1302829299769" x2="145.66735839644613" y1="173.24464959558577" y2="177.55315839532614" /><path d="M 143.63769802327073 174.10635135553383 a86.0,86.0 0 0,1 -40.68552437913181,11.842963189579606" fill="none" id="id18" stroke="none" /><text fill="#e1ed5e" style="font-size:6.75px; font-family:Arial;" text-anchor="middle"><textPath startOffset="21.407464694133747" xlink:href="#id18">June</textPath></text><path d="M 107.407793817531 119.65005319985036 l 3.931789044786536 10.429537565935503 a32.146040504679824,32.146040504679824 0 0,0 -0.5180270875309283,0.19022672196418092 l -3.752172805601481 -10.495495136908405" fill="#ff840c" stroke="none" /><path d="M 107.06938296918513 119.77432235084164 l 3.5366487357273417 9.89263595519006 a31.505814124656926,31.505814124656926 0 0,0 -0.510835612212767,0.17769514324414326 l -3.366307351469553 -9.951889531002793" fill="#ff7b0b" stroke="none" /><path d="M 104.29559338865022 120.5559693870025 l 3.128959920174215 14.973205914275228 a36.29664294978945,36.29664294978945 0 0,0 -0.6109995641037391,0.12221702486153845 l -2.8714638705395172 -15.024712335799627" fill="#ffbb11" stroke="none" /><path d="M 103.58742460773223 120.69131181640829 l 4.581127420310791 26.422725573115052 a47.816919195785175,47.816919195785175 0 0,0 -0.8099787567921038,0.1332816961970706 l -4.1268711604656145 -26.49747326780779" fill="#b6ff1f" stroke="none" /><path d="M 103.2317021107853 120.74984581791261 l 1.1745955435305993 7.5417459874557045 a28.632667111186375,28.632667111186375 0 0,0 -0.4863120722882237,0.07147112755041804 l -1.0449583656346901 -7.560798188305005" fill="#ff5307" stroke="none" /><line stroke="#e1ed5e" stroke-width="0.3" x1="101.45913802915013" x2="101.54496967792366" y1="184.9874750549273" y2="189.98673829345242" /><path d="M 101.47630435890484 185.9873277026323 a86.0,86.0 0 0,1 -42.54439059252881,-10.42667462771756" fill="none" id="id19" stroke="none" /><text fill="#e1ed5e" style="font-size:6.75px; font-family:Arial;" text-anchor="middle"><textPath startOffset="22.145653131862474" xlink:href="#id19">July</textPath></text><path d="M 100.36049292484886 120.99690560180557 l 0.25568842239391004 14.892568753548929 a35.894763531138324,35.894763531138324 0 0,0 -0.6161813472427604,0.005289175783829644 l -1.8240824482465277e-15 -14.894763531138324" fill="#ffb610" stroke="none" /><path d="M 99.63950707515114 120.99690560180557 l -0.3105563058080471 18.088347891518502 a39.09101364389732,39.09101364389732 0 0,0 -0.670851469368547,-0.017278754176943197 l 0.6210210892473381 -18.080351419991512" fill="#ffdf14" stroke="none" /><path d="M 97.12497278360702 120.80226474461374 l -2.5550247865143563 18.486886571044177 a39.66261307401395,39.66261307401395 0 0,0 -0.6736503966427229,-0.099003409881025 l 2.872000288764764 -18.44030208786427" fill="#ffe615" stroke="none" /><path d="M 96.41257539226777 120.69131181640829 l -2.8911503509404697 16.675386930916854 a37.92416259811799,37.92416259811799 0 0,0 -0.6404944396530737,-0.1167194228971504 l 3.1769795241446004 -16.623299334088337" fill="#ffd013" stroke="none" /><path d="M 94.30408787586889 120.21278271476187 l -4.434540581920937 15.736620100303057 a37.34950648655689,37.34950648655689 0 0,0 -0.6156265577528524,-0.17919991872427096 l 4.704027152055397 -15.65817648727627" fill="#ffc912" stroke="none" /><path d="M 92.59220618246901 119.65005319985036 l -2.6321304861659076 6.982038830468802 a28.461700685927983,28.461700685927983 0 0,0 -0.45569586796266487,-0.17627295119016195 l 2.7515986166221005 -6.935825991140599" fill="#ff5107" stroke="none" /><path d="M 92.25597844496254 119.51999308798841 l -3.4385831122201678 8.667475691535138 a30.324644158518772,30.324644158518772 0 0,0 -0.4822276015583191,-0.1961177674488192 l 3.5868651749689278 -8.60717066750703" fill="#ff6b09" stroke="none" /><path d="M 90.93487009805054 118.94263497670748 l -9.627113677580338 20.11696492451311 a43.301874260589514,43.301874260589514 0 0,0 -0.6677556270016438,-0.3266327388276976 l 9.971029553844051 -19.94873843558819" fill="#ebff1a" stroke="none" /><path d="M 90.6110303473126 118.78422872680471 l -3.6956479400041458 7.393771496418941 a29.26593434753229,29.26593434753229 0 0,0 -0.44745213571952813,-0.22847224872108288 l 3.822027297437256 -7.329241296025022" fill="#ff5c08" stroke="none" /><path d="M 89.97174638481275 118.45085714620012 l -5.688247511991097 10.465734741394078 a32.91166501522335,32.91166501522335 0 0,0 -0.4940758892146968,-0.2740555671168073 l 5.867067589361897 -10.36654625884412" fill="#ff8e0d" stroke="none" /><line stroke="#e1ed5e" stroke-width="0.3" x1="58.13341422392154" x2="55.67067388415222" y1="173.97424548756322" y2="178.32567169271397" /><path d="M 57.64086615596768 174.84453072859336 a86.0,86.0 0 0,1 -31.369924170532247,-30.572349798747897" fill="none" id="id20" stroke="none" /><text fill="#e1ed5e" style="font-size:6.75px; font-family:Arial;" text-anchor="middle"><textPath startOffset="22.145653131862474" xlink:href="#id20">August</textPath></text><path d="M 87.83215693770417 117.11559508785305 l -6.969576129130743 9.803581649553315 a33.028516308307005,33.028516308307005 0 0,0 -0.45928352196186656,-0.3324858509651538 l 7.136840661466564 -9.682495027215095" fill="#ff900d" stroke="none" /><path d="M 86.68645165197938 116.24036423190432 l -14.164891142889042 17.278864015241673 a43.34285753316057,43.34285753316057 0 0,0 -0.5713531140925429,-0.4766430886536689 l 14.459418591143478 -17.033158742676132" fill="#eaff1a" stroke="none" /><path d="M 86.40962598614128 116.0094264158162 l -8.455028251878518 9.960002020846762 a34.06480550928086,34.06480550928086 0 0,0 -0.4425513314675671,-0.3822652997480994 l 8.624759063108948 -9.81339258863394" fill="#ff9e0e" stroke="none" /><path d="M 86.13680546590413 115.77377054828092 l -5.423146108392329 6.1705447581503075 a29.21499460287754,29.21499460287754 0 0,0 -0.3738614662361742,-0.3343092284525873 l 5.5282726014518735 -6.0765399998143375" fill="#ff5c08" stroke="none" /><path d="M 84.83555147118756 114.52719865689866 l -5.366187960043261 5.140686677638855 a28.431193224521003,28.431193224521003 0 0,0 -0.3346001688265589,-0.35533378408304217 l 5.453643962606073 -5.047811433611322" fill="#ff5107" stroke="none" /><path d="M 83.4222238831116 112.89097897827486 l -10.205931878881907 7.936194359045672 a33.92842706677523,33.92842706677523 0 0,0 -0.3535794845258463,-0.4628468952982621 l 10.340663340762047 -7.75982655050654" fill="#ff9c0e" stroke="none" /><path d="M 81.99639281039703 110.81064883170644 l -16.914260686095375 10.156527555817423 a40.72935038335703,40.72935038335703 0 0,0 -0.3547842359262919,-0.6025011958453407 l 17.086118632151436 -9.864675191678524" fill="#fff417" stroke="none" /><line stroke="#e1ed5e" stroke-width="0.3" x1="26.387840678322732" x2="22.057713659400548" y1="142.50000000000003" y2="145.00000000000006" /><path d="M 25.521815274538298 143.00000000000003 a86.0,86.0 0 0,1 -11.493303480769221,-40.785679425670985" fill="none" id="id21" stroke="none" /><text fill="#e1ed5e" style="font-size:6.75px; font-family:Arial;" text-anchor="middle"><textPath startOffset="21.40746469413373" xlink:href="#id21">September</textPath></text><path d="M 81.63589988554817 110.18625677009913 l -13.56966358787006 7.52686364855592 a36.51739173546634,36.51739173546634 0 0,0 -0.29936375272282184,-0.5507955869678108 l 13.696872690208211 -7.292813228113522" fill="#ffbe11" stroke="none" /><path d="M 81.4637452351635 109.86951160357371 l -7.002704271368525 3.728545595617061 a28.933468306537712,28.933468306537712 0 0,0 -0.2296655096794703,-0.44041389734293224 l 7.065677850022944 -3.607785455169626" fill="#ff5808" stroke="none" /><path d="M 81.1358732173502 109.22738970284198 l -2.2102690380021994 1.0811533444808132 a23.460524694985445,23.460524694985445 0 0,0 -0.17385448865159261,-0.36328901551438764 l 2.228502784613704 -1.0430518269013211" fill="#ff0901" stroke="none" /><path d="M 80.83023694016515 108.57439118712176 l -17.037633216230365 7.620716627674236 a39.664304635590014,39.664304635590014 0 0,0 -0.27267531822554814,-0.6239344903381423 l 17.16594241647288 -7.327120067560244" fill="#ffe615" stroke="none" /><path d="M 79.73907114497094 105.5222062557868 l -19.756884814530405 5.384826811164605 a41.47756961557839,41.47756961557839 0 0,0 -0.18133700958876664,-0.6885661618678526 l 19.846411304923905 -5.04488014492395" fill="#fffd17" stroke="none" /><path d="M 79.64726062577567 105.17358676015961 l -5.77856825928815 1.4688894545956461 a26.96233908437576,26.96233908437576 0 0,0 -0.11017642893984272,-0.44955742787312175 l 5.8029322147442866 -1.369476202114425" fill="#ff3c05" stroke="none" /><path d="M 79.48165901384964 104.47187691870673 l -10.184677727873444 2.2197031078919016 a31.423758549958183,31.423758549958183 0 0,0 -0.1103457090464901,-0.5280441633837958 l 10.2212811477443 -2.0445424932226968" fill="#ff7a0b" stroke="none" /><path d="M 79.2786578344484 103.40968896794605 l -30.99073166239696 5.099513101690931 a52.40749087152635,52.40749087152635 0 0,0 -0.1384518759204594,-0.8889603620836828 l 31.073705030455688 -4.566764557675799" fill="#82ff25" stroke="none" /><path d="M 79.03789590574601 101.26102812881392 l -37.032735740219735 2.227797421736425 a58.099684604552145,58.099684604552145 0 0,0 -0.051344657111186805,-0.9960726311216416 l 37.065521986787495 -1.5917529972380526" fill="#47ff2c" stroke="none" /><line stroke="#e1ed5e" stroke-width="0.3" x1="15.003131293944662" x2="10.003315487706104" y1="100.72959589197737" y2="100.7725132973878" /><path d="M 14.003168132696942 100.73817937305945 a86.0,86.0 0 0,1 10.791469493833604,-42.45332614584628" fill="none" id="id22" stroke="none" /><text fill="#e1ed5e" style="font-size:6.75px; font-family:Arial;" text-anchor="middle"><textPath startOffset="22.145653131862435" xlink:href="#id22">October</textPath></text><path d="M 79.00077361379809 99.81974689727619 l -25.47386016971374 -0.21866245210635954 a46.47479862951009,46.47479862951009 0 0,0 0.013695831916997405,-0.7977135474154367 l 25.466352906198075 0.6559229154908486" fill="#c5ff1e" stroke="none" /><path d="M 79.00696218219943 99.45929381324524 l -19.311525442547246 -0.49739639270326724 a40.3179299638865,40.3179299638865 0 0,0 0.02375938109248366,-0.691728456749053 l 19.300141374457912 0.8288311140164588" fill="#ffee16" stroke="none" /><path d="M 79.03789590574601 98.7389718711861 l -7.43749722251695 -0.4474213639717634 a28.45094294783457,28.45094294783457 0 0,0 0.03351255379277102,-0.4872651771523256 l 7.4287207075591155 0.575029965278414" fill="#ff5107" stroke="none" /><path d="M 79.13060592940154 97.66154086499901 l -32.4657716755159 -3.6378574333610016 a53.66895065948998,53.66895065948998 0 0,0 0.11045048000647405,-0.9146884187578846 l 32.39853910924976 4.194639529042322" fill="#75ff27" stroke="none" /><path d="M 79.22317932658666 96.9465228501225 l -25.902828502546903 -3.80682377698591 a47.18107010229684,47.18107010229684 0 0,0 0.12464454136167745,-0.8003073695028032 l 25.83366246904696 4.250919328420163" fill="#bdff1f" stroke="none" /><path d="M 79.407916724674 95.88100663000787 l -22.086846872715725 -4.417987952766146 a43.524373960880226,43.524373960880226 0 0,0 0.15283747480055376,-0.73138264470935 l 22.007751687090803 4.7964870487609055" fill="#e8ff1a" stroke="none" /><path d="M 79.56144815229197 95.17655741523228 l -1.8100604620936758 -0.42716934051499456 a22.859782923330243,22.859782923330243 0 0,0 0.09341211980721217,-0.3811533257774715 l 1.8024608157701654 0.4581784909005837" fill="#ff0000" stroke="none" /><path d="M 80.05021161711548 93.44210830539832 l -59.84936514865357 -19.67367508380505 a84.0,84.0 0 0,0 0.46205831371054007,-1.3659933021033535 l 59.50282141337067 20.698170060382566" fill="#4dd2ff" stroke="none" /><path d="M 80.9802524753101 91.09779779509293 l -14.288016514737537 -6.687513173144444 a36.77562196448663,36.77562196448663 0 0,0 0.272526170433306,-0.5694748805538872 l 14.171111086344325 6.931800555763418" fill="#ffc112" stroke="none" /><path d="M 81.29705330413844 90.45014215332179 l -13.670290628197925 -6.980147799434973 a36.349244579501395,36.349244579501395 0 0,0 0.2885297985837755,-0.5532939328643571 l 13.54845276063921 7.213787975403817" fill="#ffbc11" stroke="none" /><line stroke="#e1ed5e" stroke-width="0.3" x1="26.387840678322718" x2="22.05771365940052" y1="57.49999999999999" y2="54.99999999999999" /><path d="M 25.521815274538284 56.99999999999999 a86.0,86.0 0 0,1 29.574782752854787,-30.34633250058573" fill="none" id="id23" stroke="none" /><text fill="#e1ed5e" style="font-size:6.75px; font-family:Arial;" text-anchor="middle"><textPath startOffset="21.40746469413373" xlink:href="#id23">November</textPath></text><path d="M 82.576782715395 88.27688183743585 l -12.390860926257448 -8.337124217739348 a35.93455974295424,35.93455974295424 0 0,0 0.3487539085065405,-0.5088423751478692 l 12.245917280935593 8.548601327957252" fill="#ffb610" stroke="none" /><path d="M 82.98947788004972 87.6856937992154 l -15.551932832610904 -11.258400039949256 a40.19932775618903,40.19932775618903 0 0,0 0.4094550010065225,-0.555504346975196 l 15.356375812020563 11.523710696193316" fill="#ffed16" stroke="none" /><path d="M 83.42222388311158 87.10902102172516 l -15.293295319427353 -11.892158941056483 a40.37287603858984,40.37287603858984 0 0,0 0.4301317933990225,-0.5434574696625776 l 15.08689709538677 12.152936354633743" fill="#ffef16" stroke="none" /><path d="M 83.64595745247003 86.82634096563983 l -24.550355730627846 -19.776028748096216 a52.52477247413373,52.52477247413373 0 0,0 0.5716525627490725,-0.6973231771473472 l 24.207256348640144 20.194554206942055" fill="#81ff25" stroke="none" /><path d="M 83.8745106332314 86.54754324733833 l -10.36432126424163 -8.646285418489713 a34.49731109541449,34.49731109541449 0 0,0 0.3832576296641209,-0.451476524056732 l 10.214369071070395 8.822928724996002" fill="#ffa30f" stroke="none" /><path d="M 84.10781606972428 86.27271002978789 l -10.53175003344597 -9.097074841141469 a34.91669966020386,34.91669966020386 0 0,0 0.3957042001052043,-0.4502387413015978 l 10.374034769382172 9.276525860254367" fill="#ffa90f" stroke="none" /><path d="M 84.83555147118756 85.47280134310135 l -12.022917053147154 -11.517682567528292 a37.64955093067683,37.64955093067683 0 0,0 0.45110114023349424,-0.46286950972100105 l 11.823429111762856 11.722374769317023" fill="#ffcd13" stroke="none" /><path d="M 88.72937992617638 82.28071324371311 l -14.382814865733744 -22.612173890984664 a47.79880168100992,47.79880168100992 0 0,0 0.6961232454723852,-0.4344323902274003 l 13.99252749147166 22.855742078053602" fill="#b6ff1f" stroke="none" /><line stroke="#e1ed5e" stroke-width="0.3" x1="56.869717070023135" x2="54.33264160355391" y1="26.7553504044142" y2="22.446841604673864" /><path d="M 56.362301976729285 25.89364864446614 a86.0,86.0 0 0,1 42.16139366436587,-11.88097634709845" fill="none" id="id24" stroke="none" /><text fill="#e1ed5e" style="font-size:6.75px; font-family:Arial;" text-anchor="middle"><textPath startOffset="22.145653131862474" xlink:href="#id24">December</textPath></text><path d="M 89.34428304082924 81.90426304109057 l -15.892024656675025 -26.98813219547772 a52.31957418434912,52.31957418434912 0 0,0 0.7778364351757324,-0.44908407523420557 l 15.426395753638893 27.2569631679881" fill="#83ff25" stroke="none" /><path d="M 90.93487009805054 81.0573650232925 l -9.316790973590429 -19.468509825662142 a42.58299026727945,42.58299026727945 0 0,0 0.6620869961602787,-0.30989014493526384 l 8.981215263558626 19.62557620216795" fill="#f4ff19" stroke="none" /><path d="M 91.5904679813234 80.7573450057729 l -6.390906509473367 -14.6236447865394 a36.95915639549002,36.95915639549002 0 0,0 0.5835409481921394,-0.24907893129355277 l 6.138930486110796 14.731198367492356" fill="#ffc412" stroke="none" /><path d="M 93.95794788825049 79.88797359093562 l -9.395485732097546 -31.274516286026955 a53.6553291373248,53.6553291373248 0 0,0 0.8843930934882609,-0.2574339402313891 l 8.857232626227661 31.431193920560865" fill="#75ff27" stroke="none" /><path d="M 95.00130118170881 79.60360301121753 l -5.70885206048795 -23.294064557333385 a44.983420011536154,44.983420011536154 0 0,0 0.7515826522314717,-0.1773714594731641 l 5.308137254516573 23.38863216045278" fill="#d7ff1c" stroke="none" /><path d="M 96.41257539226777 79.30868818359171 l -4.190616194477926 -24.170360596831042 a45.530951784842415,45.530951784842415 0 0,0 0.7712563741559187,-0.12690994286988652 l 3.7750823172689345 24.238736538196598" fill="#d0ff1d" stroke="none" /><path d="M 96.76829788921471 79.25015418208739 l -3.7598059143259994 -24.140651072750902 a45.43168382919421,45.43168382919421 0 0,0 0.771635287230614,-0.11340381450241784 l 3.3448455214877004 24.201635960552206" fill="#d1ff1c" stroke="none" /><path d="M 98.9189461498227 79.02784411241856 l -0.7894412099513601 -15.314948572141523 a36.33528177736911,36.33528177736911 0 0,0 0.6231920227389905,-0.026762546886652097 l 0.5264234266115495 15.326243687454003" fill="#ffbc11" stroke="none" /></svg>