<?xml version="1.0" encoding="utf-8" ?>
<svg baseProfile="full" height="200mm" version="1.1" viewBox="0,0,200,200" width="200mm" xmlns="http://www.w3.org/2000/svg" xmlns:ev="http://www.w3.org/2001/xml-events" xmlns:xlink="http://www.w3.org/1999/xlink"><defs /><rect fill="#1a1a1a" height="200" width="200" x="0" y="0" /><text alignment-baseline="middle" fill="#e1ed5e" style="dominant-baseline: central; font-size:9.0px; font-family:Arial;" text-anchor="middle" x="100.0" y="100.0">2026</text><line stroke="#e1ed5e" stroke-width="0.3" x1="100.0" x2="100.0" y1="15.0" y2="10.0" /><path d="M 100.0 14.0 a86.0,86.0 0 0,1 42.46469731375804,11.215312516191453" fill="none" id="id37" stroke="none" /><text fill="#e1ed5e" style="font-size:6.75px; font-family:Arial;" text-anchor="middle"><textPath startOffset="22.20632615414155" xlink:href="#id37">January</textPath></text><path d="M 100.0 79.0 l 0.0 -23.772373305301493 a44.77237330530149,44.77237330530149 0 0,0 0.77068280764614,0.0066335102386562185 l -0.4092023283736116 23.768851171671397" fill="#fff517" stroke="none" /><path d="M 100.36148047927253 79.00311137660856 l 0.25944588747974795 -15.070126094145676 a36.072359226809205,36.072359226809205 0 0,0 0.620742372869119,0.01603194412282292 l -0.5188148955437347 15.063427357880494" fill="#ff780b" stroke="none" /><path d="M 101.08401301168833 79.027996857942 l 1.1094209894451488 -21.46356199200155 a42.49221506304818,42.49221506304818 0 0,0 0.7301335154103279,0.04404364755769309 l -1.4787165536950886 21.441285075063554" fill="#ffd614" stroke="none" /><path d="M 101.80526077348638 79.07773832637324 l 1.0284143419935816 -11.918917359815321 a32.9632030447086,32.9632030447086 0 0,0 0.5648870717339516,0.05364283405183505 l -1.2334265408177774 11.899448981248307" fill="#ff4906" stroke="none" /><path d="M 102.16513564639614 79.11191278185805 l 1.5691322498498979 -15.13816067192829 a36.21926688597829,36.21926688597829 0 0,0 0.6195793638052871,0.06961696065935022 l -1.8294783171649103 15.10890775779834" fill="#ff7b0b" stroke="none" /><path d="M 104.307194497241 79.44645832069477 l 2.0604762578288236 -9.832405913322734 a31.045982702225807,31.045982702225807 0 0,0 0.5221006989092742,0.11411099061718678 l -2.229419680891626 9.795481424609676" fill="#ff2b04" stroke="none" /><path d="M 104.66035177308747 79.52364482259891 l 2.958285960973473 -12.997927410333952 a34.33032530702846,34.33032530702846 0 0,0 0.5750759648516021,0.13610190092113847 l -3.181585612787598 12.945079597271945" fill="#ff5e08" stroke="none" /><path d="M 105.01212808612495 79.60689891045804 l 2.4338731784931857 -9.902823893415354 a31.197532040302033,31.197532040302033 0 0,0 0.5203913413658066,0.1326593399107009 l -2.603973408544017 9.859461557335784" fill="#ff2d04" stroke="none" /><path d="M 105.36241919743992 79.69619591428918 l 2.637145813695175 -9.985062706824895 a31.327439920034166,31.327439920034166 0 0,0 0.520187829777776,0.14218698408737693 l -2.808631532696662 9.938189181911225" fill="#ff2f04" stroke="none" /><line stroke="#e1ed5e" stroke-width="0.3" x1="143.23703022742887" x2="145.7803849466894" y1="26.81831364943548" y2="22.513508569990506" /><path d="M 143.74570117128098 25.957352633546492 a86.0,86.0 0 0,1 28.547481713284135,27.462654790039103" fill="none" id="id38" stroke="none" /><text fill="#e1ed5e" style="font-size:6.75px; font-family:Arial;" text-anchor="middle"><textPath startOffset="19.985693538727396" xlink:href="#id38">February</textPath></text><path d="M 113.06298171725822 83.55741782278167 l 5.18454309036137 -6.5258665792949415 a29.33465186234989,29.33465186234989 0 0,0 0.39266052108573213,0.3175041670091226 l -5.2961070100115935 6.4356563150216894" fill="#ff0f01" stroke="none" /><path d="M 113.89432698308785 84.25364557470407 l 9.83233704154773 -11.142926467300445 a35.860675016776874,35.860675016776874 0 0,0 0.4593394074716174,0.4123994553692241 l -10.022687436615337 10.972028003161924" fill="#ff750a" stroke="none" /><path d="M 114.68862486808459 84.99185889309783 l 21.84998692288805 -22.32528162899658 a52.23843991534134,52.23843991534134 0 0,0 0.6372199124486102,0.6344834876367345 l -22.231042635503982 21.945862290709726" fill="#a7ff21" stroke="none" /><path d="M 115.19652480421416 85.50635884689758 l 5.377186870668358 -5.128476274722276 a28.430707068810978,28.430707068810978 0 0,0 0.3347142784235918,0.35704985494412994 l -5.464668471062413 5.035157002900092" fill="#ff0000" stroke="none" /><line stroke="#e1ed5e" stroke-width="0.3" x1="172.23445277983987" x2="176.4835382374775" y1="55.19839476539836" y2="52.563006222186495" /><path d="M 173.08426987136738 54.67131705675599 a86.0,86.0 0 0,1 12.851231095245387,41.99856678651699" fill="none" id="id39" stroke="none" /><text fill="#e1ed5e" style="font-size:6.75px; font-family:Arial;" text-anchor="middle"><textPath startOffset="22.20632615414155" xlink:href="#id39">March</textPath></text><path d="M 120.08093135843002 93.85539295169968 l 7.770093760331979 -2.3775875746742727 a29.12571718186127,29.12571718186127 0 0,0 0.14256914136608131,0.48067226976975197 l -7.809868798809762 2.243485918157991" fill="#ff0c01" stroke="none" /><path d="M 120.18372546131832 94.20196356495316 l 9.467239552980777 -2.7195871234325577 a30.850115678278293,30.850115678278293 0 0,0 0.1422237774864474,0.5116545989981954 l -9.512650101033588 2.5562212210154107" fill="#ff2703" stroke="none" /><path d="M 120.45610955862082 95.25157060432595 l 10.356969231475322 -2.4041393114314573 a31.632342051048614,31.632342051048614 0 0,0 0.11855442246138119,0.53145622970822 l -10.39681804093874 2.2255049121732733" fill="#ff3404" stroke="none" /><path d="M 120.83666639777658 97.38593545837742 l 12.596692846533978 -1.5803184388146152 a33.69543528351737,33.69543528351737 0 0,0 0.06724589514869657,0.5761217632579335 l -12.622029094686264 1.3632529372318292" fill="#ff5407" stroke="none" /><path d="M 120.91429891909075 98.10471618934814 l 51.553902398974294 -4.671888690637026 a72.76515620087193,72.76515620087193 0 0,0 0.10230613318027791,1.2483939567322373 l -51.626683015974066 3.78378081669702" fill="#3dffb1" stroke="none" /><path d="M 120.96714384426684 98.82574320788733 l 9.096651407693683 -0.5094544483647616 a30.11090613869192,30.11090613869192 0 0,0 0.024528045564422854,0.5177482750570946 l -9.104073061491603 0.35279506668466715" fill="#ff1c02" stroke="none" /><path d="M 120.98425023603335 99.18683210126433 l 12.22493017514398 -0.47373247416016445 a33.23410561684914,33.23410561684914 0 0,0 0.01723157602141029,0.5718321182380053 l -12.231273445621035 0.2632302084971601" fill="#ff4d07" stroke="none" /><line stroke="#e1ed5e" stroke-width="0.3" x1="184.98032266829074" x2="189.97916517819016" y1="98.17113171792111" y2="98.06355123074" /><path d="M 185.9800911702706 98.14961562048488 a86.0,86.0 0 0,1 -9.607161424134198,41.387399972396054" fill="none" id="id40" stroke="none" /><text fill="#e1ed5e" style="font-size:6.75px; font-family:Arial;" text-anchor="middle"><textPath startOffset="21.466115282336823" xlink:href="#id40">April</textPath></text><path d="M 120.9764740272857 100.99374915477107 l 47.48590147824602 2.2496189967945313 a68.53915885701414,68.53915885701414 0 0,0 -0.06597269083807487,1.1779867128607564 l -47.44014243652042 -3.066677425990711" fill="#38ff7d" stroke="none" /><path d="M 120.92983693683757 101.71520430193887 l 7.375854436628067 0.6044527388511467 a28.400580503165315,28.400580503165315 0 0,0 -0.04412287642291387,0.4868922646268627 l -7.364356963928078 -0.7313263920265799" fill="#ff0000" stroke="none" /><path d="M 120.89721153311464 102.0752229133903 l 10.330493778859658 1.0258822026352072 a31.381307047223956,31.381307047223956 0 0,0 -0.05800714835533597,0.5370741512778574 l -10.31130432900327 -1.203552675797856" fill="#ff3004" stroke="none" /><path d="M 120.64145759157962 103.86396538481128 l 10.212170097755248 1.911661111453099 a31.389555635855103,31.389555635855103 0 0,0 -0.10398921378335998,0.5302387607265059 l -10.177750950996225 -2.0871635992475497" fill="#ff3004" stroke="none" /><path d="M 120.5718875245553 104.21870165774334 l 12.07504468811772 2.4762439023780485 a33.32633311589884,33.32633311589884 0 0,0 -0.12007947766685294,0.560971343143025 l -12.030631171726423 -2.6837290649372427" fill="#ff4e07" stroke="none" /><path d="M 120.49622156327973 104.57218783832717 l 8.959314340924202 1.998596079909323 a30.179526117949607,30.179526117949607 0 0,0 -0.11746939930310955,0.5060550977379832 l -8.92358437569054 -2.1525198349958714" fill="#ff1d02" stroke="none" /><path d="M 120.41448212921028 104.9243191809786 l 9.312702180122512 2.246381646228541 a30.57980440281382,30.57980440281382 0 0,0 -0.12783623036367317,0.5106421943209404 l -9.272654635463779 -2.4063516799468774" fill="#ff2303" stroke="none" /><path d="M 120.23288151984713 105.62410040840565 l 7.736954348145473 2.150628325804068 a29.030296680760802,29.030296680760802 0 0,0 -0.13797320772004554,0.4803028364578327 l -7.698788503539329 -2.283488637766483" fill="#ff0a01" stroke="none" /><path d="M 120.13307415673323 105.97154293290107 l 60.399222470199675 17.914628798703227 a84.0,84.0 0 0,0 -0.4230929099754692,1.3826921097917715 l -60.08190278771807 -18.951647881047055" fill="#4dd2ff" stroke="none" /><line stroke="#e1ed5e" stroke-width="0.3" x1="174.80103733775053" x2="179.2010983576182" y1="140.37084112569926" y2="142.7455964860345" /><path d="M 175.68104954172406 140.8457921977663 a86.0,86.0 0 0,1 -30.038265399797805,32.042727171017184" fill="none" id="id41" stroke="none" /><text fill="#e1ed5e" style="font-size:6.75px; font-family:Arial;" text-anchor="middle"><textPath startOffset="22.206326154141568" xlink:href="#id41">May</textPath></text><line stroke="#e1ed5e" stroke-width="0.3" x1="143.8653032363475" x2="146.44561519142675" y1="172.8068346515853" y2="177.08958963109032" /><path d="M 144.38136562736335 173.6633856474863 a86.0,86.0 0 0,1 -40.68145358897372,12.25698825130547" fill="none" id="id42" stroke="none" /><text fill="#e1ed5e" style="font-size:6.75px; font-family:Arial;" text-anchor="middle"><textPath startOffset="21.466115282336833" xlink:href="#id42">June</textPath></text><line stroke="#e1ed5e" stroke-width="0.3" x1="102.19456741930631" x2="102.32365962044197" y1="184.97166512339345" y2="189.96999836594603" /><path d="M 102.22038585953345 185.97133177190398 a86.0,86.0 0 0,1 -42.740103519485714,-10.115201625700543" fill="none" id="id43" stroke="none" /><text fill="#e1ed5e" style="font-size:6.75px; font-family:Arial;" text-anchor="middle"><textPath startOffset="22.20632615414155" xlink:href="#id43">July</textPath></text><line stroke="#e1ed5e" stroke-width="0.3" x1="58.666819895761336" x2="56.23545636021788" y1="174.27360380694188" y2="178.64263932499728" /><path d="M 58.180547188652646 175.14741091055294 a86.0,86.0 0 0,1 -31.652253787137756,-30.449443065178592" fill="none" id="id44" stroke="none" /><text fill="#e1ed5e" style="font-size:6.75px; font-family:Arial;" text-anchor="middle"><textPath startOffset="22.20632615414155" xlink:href="#id44">August</textPath></text><line stroke="#e1ed5e" stroke-width="0.3" x1="26.63291911575756" x2="22.317208475507996" y1="142.92168965132927" y2="145.44649492493687" /><path d="M 25.769776987707644 143.4266507060508 a86.0,86.0 0 0,1 -11.730757126820373,-40.83630448921669" fill="none" id="id45" stroke="none" /><text fill="#e1ed5e" style="font-size:6.75px; font-family:Arial;" text-anchor="middle"><textPath startOffset="21.46611528233685" xlink:href="#id45">September</textPath></text><line stroke="#e1ed5e" stroke-width="0.3" x1="15.007084014347285" x2="10.007500721073583" y1="101.09737516637583" y2="101.16192664675087" /><path d="M 14.007167355692545 101.11028546245083 a86.0,86.0 0 0,1 10.666146001902534,-42.60595125391555" fill="none" id="id46" stroke="none" /><text fill="#e1ed5e" style="font-size:6.75px; font-family:Arial;" text-anchor="middle"><textPath startOffset="22.20632615414155" xlink:href="#id46">October</textPath></text><line stroke="#e1ed5e" stroke-width="0.3" x1="26.266209847984243" x2="21.928928074336255" y1="57.711370442889674" y2="55.22380399835377" /><path d="M 25.398753493254645 57.213857153982495 a86.0,86.0 0 0,1 29.58750427330803,-30.492523968695096" fill="none" id="id47" stroke="none" /><text fill="#e1ed5e" style="font-size:6.75px; font-family:Arial;" text-anchor="middle"><textPath startOffset="21.46611528233685" xlink:href="#id47">November</textPath></text><line stroke="#e1ed5e" stroke-width="0.3" x1="56.762969772571076" x2="54.21961505331055" y1="26.818313649435495" y2="22.513508569990535" /><path d="M 56.25429882871897 25.957352633546506 a86.0,86.0 0 0,1 42.265352541879196,-11.944610805530505" fill="none" id="id48" stroke="none" /><text fill="#e1ed5e" style="font-size:6.75px; font-family:Arial;" text-anchor="middle"><textPath startOffset="22.20632615414155" xlink:href="#id48">December</textPath></text></svg>