<?xml version="1.0" encoding="utf-8" ?>
<svg baseProfile="full" height="200mm" version="1.1" viewBox="0,0,200,200" width="200mm" xmlns="http://www.w3.org/2000/svg" xmlns:ev="http://www.w3.org/2001/xml-events" xmlns:xlink="http://www.w3.org/1999/xlink"><defs /><rect fill="#1a1a1a" height="200" width="200" x="0" y="0" /><text alignment-baseline="middle" fill="#e1ed5e" style="dominant-baseline: central; font-size:9.0px; font-family:Arial;" text-anchor="middle" x="100.0" y="100.0">2026</text><line stroke="#e1ed5e" stroke-width="0.3" x1="100.0" x2="100.0" y1="15.0" y2="10.0" /><path d="M 100.0 14.0 a86.0,86.0 0 0,1 42.46469731375804,11.215312516191453" fill="none" id="id37" stroke="none" /><text fill="#e1ed5e" style="font-size:6.75px; font-family:Arial;" text-anchor="middle"><textPath startOffset="22.20632615414155" xlink:href="#id37">January</textPath></text><path d="M 100.0 79.0 l 0.0 -47.942839728641076 a68.94283972864108,68.94283972864108 0 0,0 1.1867376546437278,0.010214625659967473 l -0.8252571753711996 47.935736479589664" fill="#35ff64" stroke="none" /><path d="M 100.36148047927253 79.00311137660856 l 0.5232364662102403 -30.392617125060532 a51.39712078651685,51.39712078651685 0 0,0 0.8844547847580665,0.022842857694514745 l -1.0463178861631746 30.379107475223655" fill="#f5ff19" stroke="none" /><path d="M 101.08401301168833 79.027996857942 l 2.2374203873324476 -43.286553655069845 a64.34433962264151,64.34433962264151 0 0,0 1.105613318009626,0.06669361464134592 l -2.9821957541816855 43.24162677104819" fill="#3eff2d" stroke="none" /><path d="M 101.80526077348638 79.07773832637324 l 2.074050551857967 -24.037429388386293 a45.12674236803053,45.12674236803053 0 0,0 0.77333241307268,0.07343723086815622 l -2.487508092020891 23.998166613002958" fill="#ffa30f" stroke="none" /><path d="M 102.16513564639614 79.11191278185805 l 3.1645412513700877 -30.52982559039749 a51.693396226415096,51.693396226415096 0 0,0 0.8842851968187154,0.09935974526408033 l -3.6895931516985283 30.47082989166281" fill="#f0ff19" stroke="none" /><path d="M 104.307194497241 79.44645832069477 l 4.15545733381729 -19.829465690926575 a41.26019583421666,41.26019583421666 0 0,0 0.6938732553192338,0.1516538183010723 l -4.496173313290052 19.754998374529634" fill="#ff6108" stroke="none" /><path d="M 104.66035177308747 79.52364482259891 l 5.966111497450313 -26.213518635061167 a47.883880776976895,47.883880776976895 0 0,0 0.8021150016024299,0.1898347055829812 l -6.416450186015266 26.106938017337317" fill="#ffd113" stroke="none" /><path d="M 105.01212808612495 79.60689891045804 l 4.908504094974593 -19.97148087343434 a41.56583236167056,41.56583236167056 0 0,0 0.6933400767000728,0.17674782341163298 l -5.251553060359691 19.88403005385384" fill="#ff6609" stroke="none" /><path d="M 105.36241919743992 79.69619591428918 l 5.318453377090828 -20.13733567472538 a41.82782356370575,41.82782356370575 0 0,0 0.6945452555163047,0.1898454549316315 l -5.664296521830843 20.04280367896746" fill="#ff6b09" stroke="none" /><line stroke="#e1ed5e" stroke-width="0.3" x1="143.23703022742887" x2="145.7803849466894" y1="26.81831364943548" y2="22.513508569990506" /><path d="M 143.74570117128098 25.957352633546492 a86.0,86.0 0 0,1 28.547481713284135,27.462654790039103" fill="none" id="id38" stroke="none" /><text fill="#e1ed5e" style="font-size:6.75px; font-family:Arial;" text-anchor="middle"><textPath startOffset="19.985693538727396" xlink:href="#id38">February</textPath></text><path d="M 113.06298171725822 83.55741782278167 l 10.45590674751842 -13.161015582397047 a37.80887613949544,37.80887613949544 0 0,0 0.5060926946146795,0.40922509599062123 l -10.68090284069759 12.979084389142296" fill="#ff2203" stroke="none" /><path d="M 113.89432698308785 84.25364557470407 l 19.829326794047052 -22.472452828707702 a50.970207494170026,50.970207494170026 0 0,0 0.6528774178992506,0.5861597920512689 l -20.213215199542294 22.127794027887134" fill="#fcff18" stroke="none" /><path d="M 114.68862486808459 84.99185889309783 l 44.06587460425377 -45.02442332070654 a84.0,84.0 0 0,0 1.0246567993307099,1.0202565973995252 l -44.8343672037518 44.25923087265689" fill="#4dd2ff" stroke="none" /><path d="M 115.19652480421416 85.50635884689758 l 10.844420328613744 -10.342834219093973 a35.985849056603776,35.985849056603776 0 0,0 0.42366084921099245,0.4519318550398293 l -11.0208484997952 10.15463294717609" fill="#ff0000" stroke="none" /><line stroke="#e1ed5e" stroke-width="0.3" x1="172.23445277983987" x2="176.4835382374775" y1="55.19839476539836" y2="52.563006222186495" /><path d="M 173.08426987136738 54.67131705675599 a86.0,86.0 0 0,1 12.851231095245387,41.99856678651699" fill="none" id="id39" stroke="none" /><text fill="#e1ed5e" style="font-size:6.75px; font-family:Arial;" text-anchor="middle"><textPath startOffset="22.20632615414155" xlink:href="#id39">March</textPath></text><path d="M 120.08093135843002 93.85539295169968 l 15.670305822811313 -4.794990326354859 a37.387507949968196,37.387507949968196 0 0,0 0.18301025423552758,0.6170195980114032 l -15.750521974158543 4.524541341596926" fill="#ff1a02" stroke="none" /><path d="M 120.18372546131832 94.20196356495316 l 19.09301787970777 -5.484716562049191 a40.86518178927284,40.86518178927284 0 0,0 0.18839477240057867,0.6777562333777819 l -19.18459942267471 5.1552490252524565" fill="#ff5a08" stroke="none" /><line stroke="#e1ed5e" stroke-width="0.3" x1="184.98032266829074" x2="189.97916517819016" y1="98.17113171792111" y2="98.06355123074" /><path d="M 185.9800911702706 98.14961562048488 a86.0,86.0 0 0,1 -9.607161424134198,41.387399972396054" fill="none" id="id40" stroke="none" /><text fill="#e1ed5e" style="font-size:6.75px; font-family:Arial;" text-anchor="middle"><textPath startOffset="21.466115282336823" xlink:href="#id40">April</textPath></text><line stroke="#e1ed5e" stroke-width="0.3" x1="174.80103733775053" x2="179.2010983576182" y1="140.37084112569926" y2="142.7455964860345" /><path d="M 175.68104954172406 140.8457921977663 a86.0,86.0 0 0,1 -30.038265399797805,32.042727171017184" fill="none" id="id41" stroke="none" /><text fill="#e1ed5e" style="font-size:6.75px; font-family:Arial;" text-anchor="middle"><textPath startOffset="22.206326154141568" xlink:href="#id41">May</textPath></text><line stroke="#e1ed5e" stroke-width="0.3" x1="143.8653032363475" x2="146.44561519142675" y1="172.8068346515853" y2="177.08958963109032" /><path d="M 144.38136562736335 173.6633856474863 a86.0,86.0 0 0,1 -40.68145358897372,12.25698825130547" fill="none" id="id42" stroke="none" /><text fill="#e1ed5e" style="font-size:6.75px; font-family:Arial;" text-anchor="middle"><textPath startOffset="21.466115282336833" xlink:href="#id42">June</textPath></text><line stroke="#e1ed5e" stroke-width="0.3" x1="102.19456741930631" x2="102.32365962044197" y1="184.97166512339345" y2="189.96999836594603" /><path d="M 102.22038585953345 185.97133177190398 a86.0,86.0 0 0,1 -42.740103519485714,-10.115201625700543" fill="none" id="id43" stroke="none" /><text fill="#e1ed5e" style="font-size:6.75px; font-family:Arial;" text-anchor="middle"><textPath startOffset="22.20632615414155" xlink:href="#id43">July</textPath></text><line stroke="#e1ed5e" stroke-width="0.3" x1="58.666819895761336" x2="56.23545636021788" y1="174.27360380694188" y2="178.64263932499728" /><path d="M 58.180547188652646 175.14741091055294 a86.0,86.0 0 0,1 -31.652253787137756,-30.449443065178592" fill="none" id="id44" stroke="none" /><text fill="#e1ed5e" style="font-size:6.75px; font-family:Arial;" text-anchor="middle"><textPath startOffset="22.20632615414155" xlink:href="#id44">August</textPath></text><line stroke="#e1ed5e" stroke-width="0.3" x1="26.63291911575756" x2="22.317208475507996" y1="142.92168965132927" y2="145.44649492493687" /><path d="M 25.769776987707644 143.4266507060508 a86.0,86.0 0 0,1 -11.730757126820373,-40.83630448921669" fill="none" id="id45" stroke="none" /><text fill="#e1ed5e" style="font-size:6.75px; font-family:Arial;" text-anchor="middle"><textPath startOffset="21.46611528233685" xlink:href="#id45">September</textPath></text><line stroke="#e1ed5e" stroke-width="0.3" x1="15.007084014347285" x2="10.007500721073583" y1="101.09737516637583" y2="101.16192664675087" /><path d="M 14.007167355692545 101.11028546245083 a86.0,86.0 0 0,1 10.666146001902534,-42.60595125391555" fill="none" id="id46" stroke="none" /><text fill="#e1ed5e" style="font-size:6.75px; font-family:Arial;" text-anchor="middle"><textPath startOffset="22.20632615414155" xlink:href="#id46">October</textPath></text><line stroke="#e1ed5e" stroke-width="0.3" x1="26.266209847984243" x2="21.928928074336255" y1="57.711370442889674" y2="55.22380399835377" /><path d="M 25.398753493254645 57.213857153982495 a86.0,86.0 0 0,1 29.58750427330803,-30.492523968695096" fill="none" id="id47" stroke="none" /><text fill="#e1ed5e" style="font-size:6.75px; font-family:Arial;" text-anchor="middle"><textPath startOffset="21.46611528233685" xlink:href="#id47">November</textPath></text><line stroke="#e1ed5e" stroke-width="0.3" x1="56.762969772571076" x2="54.21961505331055" y1="26.818313649435495" y2="22.513508569990535" /><path d="M 56.25429882871897 25.957352633546506 a86.0,86.0 0 0,1 42.265352541879196,-11.944610805530505" fill="none" id="id48" stroke="none" /><text fill="#e1ed5e" style="font-size:6.75px; font-family:Arial;" text-anchor="middle"><textPath startOffset="22.20632615414155" xlink:href="#id48">December</textPath></text></svg>