<?xml version="1.0" encoding="utf-8" ?>
<svg baseProfile="full" height="200mm" version="1.1" viewBox="0,0,200,200" width="200mm" xmlns="http://www.w3.org/2000/svg" xmlns:ev="http://www.w3.org/2001/xml-events" xmlns:xlink="http://www.w3.org/1999/xlink"><defs /><rect fill="#1a1a1a" height="200" width="200" x="0" y="0" /><text alignment-baseline="middle" fill="#e1ed5e" style="dominant-baseline: central; font-size:9.0px; font-family:Arial;" text-anchor="middle" x="100.0" y="100.0">2026</text><line stroke="#e1ed5e" stroke-width="0.3" x1="100.0" x2="100.0" y1="15.0" y2="10.0" /><path d="M 100.0 14.0 a86.0,86.0 0 0,1 42.46469731375804,11.215312516191453" fill="none" id="id37" stroke="none" /><text fill="#e1ed5e" style="font-size:6.75px; font-family:Arial;" text-anchor="middle"><textPath startOffset="22.20632615414155" xlink:href="#id37">January</textPath></text><path d="M 100.0 79.0 l 0.0 -28.93180718749126 a49.93180718749126,49.93180718749126 0 0,0 0.8594939806227532,0.0073979360431539005 l -0.4980135013502248 28.927520628056666" fill="#d2ff1c" stroke="none" /><path d="M 100.36148047927253 79.00311137660856 l 0.3157546912018938 -18.34086890894353 a39.34358670925802,39.34358670925802 0 0,0 0.6770344910774785,0.017485803458219127 l -0.6314158174742401 18.332716313342953" fill="#ff950d" stroke="none" /><path d="M 101.08401301168833 79.027996857942 l 1.3502040265043598 -26.121903317531608 a47.15677510404632,47.15677510404632 0 0,0 0.8102835291369176,0.048878515265874244 l -1.7996496044808894 26.094791532885427" fill="#f8ff18" stroke="none" /><path d="M 101.80526077348638 79.07773832637324 l 1.25161611208476 -14.505738005591434 a35.559635228222234,35.559635228222234 0 0,0 0.6093818670701786,0.05786815100778006 l -1.5011231062451829 14.482044310068476" fill="#ff5a08" stroke="none" /><path d="M 102.16513564639614 79.11191278185805 l 1.9096886592390587 -18.4236693622769 a39.5223784527184,39.5223784527184 0 0,0 0.6760835379383922,0.07596586299133566 l -2.226538900687176 18.388067545814966" fill="#ff980e" stroke="none" /><path d="M 104.307194497241 79.44645832069477 l 2.5076714487153318 -11.966380824499446 a33.22631122340872,33.22631122340872 0 0,0 0.5587673122898136,0.12212489211965882 l -2.713281485158673 11.921442434283916" fill="#ff3505" stroke="none" /><path d="M 104.66035177308747 79.52364482259891 l 3.600337161509221 -15.818930859079405 a37.22347068912441,37.22347068912441 0 0,0 0.6235397751180362,0.14757171900829355 l -3.8721006235897804 15.754613227930243" fill="#ff740a" stroke="none" /><path d="M 105.01212808612495 79.60689891045804 l 2.9621085204508275 -12.052081961546534 a33.4107520519412,33.4107520519412 0 0,0 0.5573090221973125,0.14207047876110476 l -3.169126431333165 11.999308486616563" fill="#ff3805" stroke="none" /><path d="M 105.36241919743992 79.69619591428918 l 3.2094984050293967 -12.152169464899105 a33.56885447109292,33.56885447109292 0 0,0 0.5574062100196273,0.1523601733399336 l -3.4182025042727346 12.095122750732878" fill="#ff3a05" stroke="none" /><line stroke="#e1ed5e" stroke-width="0.3" x1="143.23703022742887" x2="145.7803849466894" y1="26.81831364943548" y2="22.513508569990506" /><path d="M 143.74570117128098 25.957352633546492 a86.0,86.0 0 0,1 28.547481713284135,27.462654790039103" fill="none" id="id38" stroke="none" /><text fill="#e1ed5e" style="font-size:6.75px; font-family:Arial;" text-anchor="middle"><textPath startOffset="19.985693538727396" xlink:href="#id38">February</textPath></text><path d="M 113.06298171725822 83.55741782278167 l 6.309769711218694 -7.942207165380026 a31.143561922048224,31.143561922048224 0 0,0 0.41687378156590854,0.33708293973136116 l -6.445546891349094 7.832418128384535" fill="#ff1202" stroke="none" /><path d="M 113.89432698308785 84.25364557470407 l 11.9662970051479 -13.561330032808895 a39.08595964482328,39.08595964482328 0 0,0 0.5006520801773334,0.44949038082990767 l -12.197960072921223 13.35334064320969" fill="#ff910d" stroke="none" /><path d="M 114.68862486808459 84.99185889309783 l 26.592195931957036 -27.170646161463598 a59.01827057238465,59.01827057238465 0 0,0 0.7199222884134938,0.7168307133164964 l -27.05595402053785 26.70887959749698" fill="#5fff29" stroke="none" /><path d="M 115.19652480421416 85.50635884689758 l 6.544223908792157 -6.241534441695769 a30.043429590331392,30.043429590331392 0 0,0 0.35370083594330803,0.37730339070672386 l -6.650692066705927 6.127961634110991" fill="#ff0000" stroke="none" /><line stroke="#e1ed5e" stroke-width="0.3" x1="172.23445277983987" x2="176.4835382374775" y1="55.19839476539836" y2="52.563006222186495" /><path d="M 173.08426987136738 54.67131705675599 a86.0,86.0 0 0,1 12.851231095245387,41.99856678651699" fill="none" id="id39" stroke="none" /><text fill="#e1ed5e" style="font-size:6.75px; font-family:Arial;" text-anchor="middle"><textPath startOffset="22.20632615414155" xlink:href="#id39">March</textPath></text><path d="M 120.08093135843002 93.85539295169968 l 9.45647502735961 -2.893606978084541 a30.88928113093644,30.88928113093644 0 0,0 0.1512017115580492,0.5097770049765469 l -9.504882636029361 2.730400586361464" fill="#ff0e01" stroke="none" /><path d="M 120.18372546131832 94.20196356495316 l 11.521960631652505 -3.3098323534734195 a32.98793422593941,32.98793422593941 0 0,0 0.1520794497503617,0.5471106959263706 l -11.577226851969229 3.1110103541280973" fill="#ff3104" stroke="none" /><path d="M 120.45610955862082 95.25157060432595 l 12.604792672719778 -2.925921367501459 a33.93993099560627,33.93993099560627 0 0,0 0.12720300352941602,0.5702261228198915 l -12.653290063251232 2.7085170751316032" fill="#ff4006" stroke="none" /><path d="M 120.83666639777658 97.38593545837742 l 15.330614405028562 -1.9233026412396645 a36.45078739370485,36.45078739370485 0 0,0 0.07274474440054293,0.623232545557107 l -15.361449502432693 1.6591263573577049" fill="#ff6809" stroke="none" /><path d="M 120.91429891909075 98.10471618934814 l 62.74289675727228 -5.6858514319555935 a84.0,84.0 0 0,0 0.118102064722021,1.441144331168925 l -62.831473305813795 4.6049931835789" fill="#4dd2ff" stroke="none" /><line stroke="#e1ed5e" stroke-width="0.3" x1="184.98032266829074" x2="189.97916517819016" y1="98.17113171792111" y2="98.06355123074" /><path d="M 185.9800911702706 98.14961562048488 a86.0,86.0 0 0,1 -9.607161424134198,41.387399972396054" fill="none" id="id40" stroke="none" /><text fill="#e1ed5e" style="font-size:6.75px; font-family:Arial;" text-anchor="middle"><textPath startOffset="21.466115282336823" xlink:href="#id40">April</textPath></text><line stroke="#e1ed5e" stroke-width="0.3" x1="174.80103733775053" x2="179.2010983576182" y1="140.37084112569926" y2="142.7455964860345" /><path d="M 175.68104954172406 140.8457921977663 a86.0,86.0 0 0,1 -30.038265399797805,32.042727171017184" fill="none" id="id41" stroke="none" /><text fill="#e1ed5e" style="font-size:6.75px; font-family:Arial;" text-anchor="middle"><textPath startOffset="22.206326154141568" xlink:href="#id41">May</textPath></text><line stroke="#e1ed5e" stroke-width="0.3" x1="143.8653032363475" x2="146.44561519142675" y1="172.8068346515853" y2="177.08958963109032" /><path d="M 144.38136562736335 173.6633856474863 a86.0,86.0 0 0,1 -40.68145358897372,12.25698825130547" fill="none" id="id42" stroke="none" /><text fill="#e1ed5e" style="font-size:6.75px; font-family:Arial;" text-anchor="middle"><textPath startOffset="21.466115282336833" xlink:href="#id42">June</textPath></text><line stroke="#e1ed5e" stroke-width="0.3" x1="102.19456741930631" x2="102.32365962044197" y1="184.97166512339345" y2="189.96999836594603" /><path d="M 102.22038585953345 185.97133177190398 a86.0,86.0 0 0,1 -42.740103519485714,-10.115201625700543" fill="none" id="id43" stroke="none" /><text fill="#e1ed5e" style="font-size:6.75px; font-family:Arial;" text-anchor="middle"><textPath startOffset="22.20632615414155" xlink:href="#id43">July</textPath></text><line stroke="#e1ed5e" stroke-width="0.3" x1="58.666819895761336" x2="56.23545636021788" y1="174.27360380694188" y2="178.64263932499728" /><path d="M 58.180547188652646 175.14741091055294 a86.0,86.0 0 0,1 -31.652253787137756,-30.449443065178592" fill="none" id="id44" stroke="none" /><text fill="#e1ed5e" style="font-size:6.75px; font-family:Arial;" text-anchor="middle"><textPath startOffset="22.20632615414155" xlink:href="#id44">August</textPath></text><line stroke="#e1ed5e" stroke-width="0.3" x1="26.63291911575756" x2="22.317208475507996" y1="142.92168965132927" y2="145.44649492493687" /><path d="M 25.769776987707644 143.4266507060508 a86.0,86.0 0 0,1 -11.730757126820373,-40.83630448921669" fill="none" id="id45" stroke="none" /><text fill="#e1ed5e" style="font-size:6.75px; font-family:Arial;" text-anchor="middle"><textPath startOffset="21.46611528233685" xlink:href="#id45">September</textPath></text><line stroke="#e1ed5e" stroke-width="0.3" x1="15.007084014347285" x2="10.007500721073583" y1="101.09737516637583" y2="101.16192664675087" /><path d="M 14.007167355692545 101.11028546245083 a86.0,86.0 0 0,1 10.666146001902534,-42.60595125391555" fill="none" id="id46" stroke="none" /><text fill="#e1ed5e" style="font-size:6.75px; font-family:Arial;" text-anchor="middle"><textPath startOffset="22.20632615414155" xlink:href="#id46">October</textPath></text><line stroke="#e1ed5e" stroke-width="0.3" x1="26.266209847984243" x2="21.928928074336255" y1="57.711370442889674" y2="55.22380399835377" /><path d="M 25.398753493254645 57.213857153982495 a86.0,86.0 0 0,1 29.58750427330803,-30.492523968695096" fill="none" id="id47" stroke="none" /><text fill="#e1ed5e" style="font-size:6.75px; font-family:Arial;" text-anchor="middle"><textPath startOffset="21.46611528233685" xlink:href="#id47">November</textPath></text><line stroke="#e1ed5e" stroke-width="0.3" x1="56.762969772571076" x2="54.21961505331055" y1="26.818313649435495" y2="22.513508569990535" /><path d="M 56.25429882871897 25.957352633546506 a86.0,86.0 0 0,1 42.265352541879196,-11.944610805530505" fill="none" id="id48" stroke="none" /><text fill="#e1ed5e" style="font-size:6.75px; font-family:Arial;" text-anchor="middle"><textPath startOffset="22.20632615414155" xlink:href="#id48">December</textPath></text></svg>