<?xml version="1.0" encoding="utf-8" ?>
<svg baseProfile="full" height="200mm" version="1.1" viewBox="0,0,200,200" width="200mm" xmlns="http://www.w3.org/2000/svg" xmlns:ev="http://www.w3.org/2001/xml-events" xmlns:xlink="http://www.w3.org/1999/xlink"><defs /><rect fill="#1a1a1a" height="200" width="200" x="0" y="0" /><text alignment-baseline="middle" fill="#e1ed5e" style="dominant-baseline: central; font-size:9.0px; font-family:Arial;" text-anchor="middle" x="100.0" y="100.0">2026</text><line stroke="#e1ed5e" stroke-width="0.3" x1="100.0" x2="100.0" y1="15.0" y2="10.0" /><path d="M 100.0 14.0 a86.0,86.0 0 0,1 42.46469731375804,11.215312516191453" fill="none" id="id37" stroke="none" /><text fill="#e1ed5e" style="font-size:6.75px; font-family:Arial;" text-anchor="middle"><textPath startOffset="22.20632615414155" xlink:href="#id37">January</textPath></text><path d="M 100.0 79.0 l 0.0 -23.772373305301493 a44.77237330530149,44.77237330530149 0 0,0 0.77068280764614,0.0066335102386562185 l -0.4092023283736116 23.768851171671397" fill="#e2ff1b" stroke="none" /><path d="M 100.36148047927253 79.00311137660856 l 0.25944588747974795 -15.070126094145676 a36.072359226809205,36.072359226809205 0 0,0 0.620742372869119,0.01603194412282292 l -0.5188148955437347 15.063427357880494" fill="#ffac10" stroke="none" /><path d="M 101.08401301168833 79.027996857942 l 1.1094209894451488 -21.46356199200155 a42.49221506304818,42.49221506304818 0 0,0 0.7301335154103279,0.04404364755769309 l -1.4787165536950886 21.441285075063554" fill="#feff18" stroke="none" /><path d="M 101.80526077348638 79.07773832637324 l 1.0284143419935816 -11.918917359815321 a32.9632030447086,32.9632030447086 0 0,0 0.5648870717339516,0.05364283405183505 l -1.2334265408177774 11.899448981248307" fill="#ff820c" stroke="none" /><path d="M 102.16513564639614 79.11191278185805 l 1.5691322498498979 -15.13816067192829 a36.21926688597829,36.21926688597829 0 0,0 0.6195793638052871,0.06961696065935022 l -1.8294783171649103 15.10890775779834" fill="#ffae10" stroke="none" /><path d="M 104.307194497241 79.44645832069477 l 2.0604762578288236 -9.832405913322734 a31.045982702225807,31.045982702225807 0 0,0 0.5221006989092742,0.11411099061718678 l -2.229419680891626 9.795481424609676" fill="#ff6709" stroke="none" /><path d="M 104.66035177308747 79.52364482259891 l 2.958285960973473 -12.997927410333952 a34.33032530702846,34.33032530702846 0 0,0 0.5750759648516021,0.13610190092113847 l -3.181585612787598 12.945079597271945" fill="#ff950d" stroke="none" /><path d="M 105.01212808612495 79.60689891045804 l 2.4338731784931857 -9.902823893415354 a31.197532040302033,31.197532040302033 0 0,0 0.5203913413658066,0.1326593399107009 l -2.603973408544017 9.859461557335784" fill="#ff6909" stroke="none" /><path d="M 105.36241919743992 79.69619591428918 l 2.637145813695175 -9.985062706824895 a31.327439920034166,31.327439920034166 0 0,0 0.520187829777776,0.14218698408737693 l -2.808631532696662 9.938189181911225" fill="#ff6b09" stroke="none" /><line stroke="#e1ed5e" stroke-width="0.3" x1="143.23703022742887" x2="145.7803849466894" y1="26.81831364943548" y2="22.513508569990506" /><path d="M 143.74570117128098 25.957352633546492 a86.0,86.0 0 0,1 28.547481713284135,27.462654790039103" fill="none" id="id38" stroke="none" /><text fill="#e1ed5e" style="font-size:6.75px; font-family:Arial;" text-anchor="middle"><textPath startOffset="19.985693538727396" xlink:href="#id38">February</textPath></text><path d="M 113.06298171725822 83.55741782278167 l 5.18454309036137 -6.5258665792949415 a29.33465186234989,29.33465186234989 0 0,0 0.39266052108573213,0.3175041670091226 l -5.2961070100115935 6.4356563150216894" fill="#ff4f07" stroke="none" /><path d="M 113.89432698308785 84.25364557470407 l 9.83233704154773 -11.142926467300445 a35.860675016776874,35.860675016776874 0 0,0 0.4593394074716174,0.4123994553692241 l -10.022687436615337 10.972028003161924" fill="#ffaa0f" stroke="none" /><path d="M 114.68862486808459 84.99185889309783 l 21.84998692288805 -22.32528162899658 a52.23843991534134,52.23843991534134 0 0,0 0.6372199124486102,0.6344834876367345 l -22.231042635503982 21.945862290709726" fill="#8bff24" stroke="none" /><path d="M 115.19652480421416 85.50635884689758 l 5.377186870668358 -5.128476274722276 a28.430707068810978,28.430707068810978 0 0,0 0.3347142784235918,0.35704985494412994 l -5.464668471062413 5.035157002900092" fill="#ff4206" stroke="none" /><line stroke="#e1ed5e" stroke-width="0.3" x1="172.23445277983987" x2="176.4835382374775" y1="55.19839476539836" y2="52.563006222186495" /><path d="M 173.08426987136738 54.67131705675599 a86.0,86.0 0 0,1 12.851231095245387,41.99856678651699" fill="none" id="id39" stroke="none" /><text fill="#e1ed5e" style="font-size:6.75px; font-family:Arial;" text-anchor="middle"><textPath startOffset="22.20632615414155" xlink:href="#id39">March</textPath></text><path d="M 120.08093135843002 93.85539295169968 l 7.770093760331979 -2.3775875746742727 a29.12571718186127,29.12571718186127 0 0,0 0.14256914136608131,0.48067226976975197 l -7.809868798809762 2.243485918157991" fill="#ff4c07" stroke="none" /><path d="M 120.18372546131832 94.20196356495316 l 9.467239552980777 -2.7195871234325577 a30.850115678278293,30.850115678278293 0 0,0 0.1422237774864474,0.5116545989981954 l -9.512650101033588 2.5562212210154107" fill="#ff6409" stroke="none" /><path d="M 120.45610955862082 95.25157060432595 l 10.356969231475322 -2.4041393114314573 a31.632342051048614,31.632342051048614 0 0,0 0.11855442246138119,0.53145622970822 l -10.39681804093874 2.2255049121732733" fill="#ff6f0a" stroke="none" /><path d="M 120.83666639777658 97.38593545837742 l 12.596692846533978 -1.5803184388146152 a33.69543528351737,33.69543528351737 0 0,0 0.06724589514869657,0.5761217632579335 l -12.622029094686264 1.3632529372318292" fill="#ff8c0c" stroke="none" /><path d="M 120.91429891909075 98.10471618934814 l 51.553902398974294 -4.671888690637026 a72.76515620087193,72.76515620087193 0 0,0 0.10230613318027791,1.2483939567322373 l -51.626683015974066 3.78378081669702" fill="#3fffba" stroke="none" /><path d="M 120.96714384426684 98.82574320788733 l 9.096651407693683 -0.5094544483647616 a30.11090613869192,30.11090613869192 0 0,0 0.024528045564422854,0.5177482750570946 l -9.104073061491603 0.35279506668466715" fill="#ff5a08" stroke="none" /><path d="M 120.98425023603335 99.18683210126433 l 12.22493017514398 -0.47373247416016445 a33.23410561684914,33.23410561684914 0 0,0 0.01723157602141029,0.5718321182380053 l -12.231273445621035 0.2632302084971601" fill="#ff860c" stroke="none" /><line stroke="#e1ed5e" stroke-width="0.3" x1="184.98032266829074" x2="189.97916517819016" y1="98.17113171792111" y2="98.06355123074" /><path d="M 185.9800911702706 98.14961562048488 a86.0,86.0 0 0,1 -9.607161424134198,41.387399972396054" fill="none" id="id40" stroke="none" /><text fill="#e1ed5e" style="font-size:6.75px; font-family:Arial;" text-anchor="middle"><textPath startOffset="21.466115282336823" xlink:href="#id40">April</textPath></text><path d="M 120.9764740272857 100.99374915477107 l 47.48590147824602 2.2496189967945313 a68.53915885701414,68.53915885701414 0 0,0 -0.06597269083807487,1.1779867128607564 l -47.44014243652042 -3.066677425990711" fill="#39ff8b" stroke="none" /><path d="M 120.92983693683757 101.71520430193887 l 7.375854436628067 0.6044527388511467 a28.400580503165315,28.400580503165315 0 0,0 -0.04412287642291387,0.4868922646268627 l -7.364356963928078 -0.7313263920265799" fill="#ff4106" stroke="none" /><path d="M 120.89721153311464 102.0752229133903 l 10.330493778859658 1.0258822026352072 a31.381307047223956,31.381307047223956 0 0,0 -0.05800714835533597,0.5370741512778574 l -10.31130432900327 -1.203552675797856" fill="#ff6c09" stroke="none" /><path d="M 120.64145759157962 103.86396538481128 l 10.212170097755248 1.911661111453099 a31.389555635855103,31.389555635855103 0 0,0 -0.10398921378335998,0.5302387607265059 l -10.177750950996225 -2.0871635992475497" fill="#ff6c09" stroke="none" /><path d="M 120.5718875245553 104.21870165774334 l 12.07504468811772 2.4762439023780485 a33.32633311589884,33.32633311589884 0 0,0 -0.12007947766685294,0.560971343143025 l -12.030631171726423 -2.6837290649372427" fill="#ff870c" stroke="none" /><path d="M 120.49622156327973 104.57218783832717 l 8.959314340924202 1.998596079909323 a30.179526117949607,30.179526117949607 0 0,0 -0.11746939930310955,0.5060550977379832 l -8.92358437569054 -2.1525198349958714" fill="#ff5b08" stroke="none" /><path d="M 120.41448212921028 104.9243191809786 l 9.312702180122512 2.246381646228541 a30.57980440281382,30.57980440281382 0 0,0 -0.12783623036367317,0.5106421943209404 l -9.272654635463779 -2.4063516799468774" fill="#ff6108" stroke="none" /><path d="M 120.23288151984713 105.62410040840565 l 7.736954348145473 2.150628325804068 a29.030296680760802,29.030296680760802 0 0,0 -0.13797320772004554,0.4803028364578327 l -7.698788503539329 -2.283488637766483" fill="#ff4a06" stroke="none" /><path d="M 120.13307415673323 105.97154293290107 l 60.399222470199675 17.914628798703227 a84.0,84.0 0 0,0 -0.4230929099754692,1.3826921097917715 l -60.08190278771807 -18.951647881047055" fill="#4dd2ff" stroke="none" /><path d="M 119.54520255179757 107.68017299344265 l 11.132581988438895 4.374482961141328 a32.961207418426866,32.961207418426866 0 0,0 -0.2120463311023482,0.5262816040029844 l -11.055633043079155 -4.565463932987125" fill="#ff820c" stroke="none" /><path d="M 118.64920377521936 109.65438752849418 l 10.96557796396347 5.6767002180914465 a33.34782675007391,33.34782675007391 0 0,0 -0.26828722312265724,0.5074983194682179 l -10.86623823261592 -5.864613552645799" fill="#ff870c" stroke="none" /><line stroke="#e1ed5e" stroke-width="0.3" x1="174.80103733775053" x2="179.2010983576182" y1="140.37084112569926" y2="142.7455964860345" /><path d="M 175.68104954172406 140.8457921977663 a86.0,86.0 0 0,1 -30.038265399797805,32.042727171017184" fill="none" id="id41" stroke="none" /><text fill="#e1ed5e" style="font-size:6.75px; font-family:Arial;" text-anchor="middle"><textPath startOffset="22.206326154141568" xlink:href="#id41">May</textPath></text><path d="M 118.30583269289576 110.29060199501025 l 10.34670291384658 5.816386691239067 a32.869482521551824,32.869482521551824 0 0,0 -0.2815005151907307,0.490819875984078 l -10.24505040250347 -5.9936264130814605" fill="#ff810b" stroke="none" /><path d="M 117.14729908036423 112.12312394758627 l 7.746086418312675 5.47647564306229 a30.486497787330297,30.486497787330297 0 0,0 -0.30663639963717293,0.4258911399186265 l -7.6506702262999 -5.609000388432048" fill="#ff5f08" stroke="none" /><path d="M 116.93607887273984 112.41649034213515 l 5.975870843679954 4.381140591865671 a28.409819513728877,28.409819513728877 0 0,0 -0.2925382564318947,0.391902800409152 l -5.899571320552967 -4.483356271784139" fill="#ff4106" stroke="none" /><path d="M 115.32070863581623 114.36230785411682 l 5.406073139264976 5.067891345866506 a28.410070814816205,28.410070814816205 0 0,0 -0.33752983538839654,0.35389868297823485 l -5.318036752497615 -5.160197145427248" fill="#ff4106" stroke="none" /><path d="M 115.07121518719521 114.62390073753431 l 22.604064440964745 21.9331746341428 a52.49615657160556,52.49615657160556 0 0,0 -0.6348519576148421,0.643101681310711 l -22.223171858294368 -22.319016809434178" fill="#88ff25" stroke="none" /><path d="M 113.48314897796784 116.09983520530334 l 2.851673575472415 3.4051002995995785 a25.44148063503386,25.44148063503386 0 0,0 -0.3381655818709396,0.27828725168418333 l -2.7926378650567845 -3.45368267014094" fill="#ff1602" stroke="none" /><path d="M 113.20401910651253 116.32954008644616 l 2.070481977314273 2.560585392529601 a24.292945971439433,24.292945971439433 0 0,0 -0.32742553985895917,0.26012665132773943 l -2.026098944737963 -2.5958459578624664" fill="#ff0500" stroke="none" /><path d="M 112.04921762599082 117.19931262002967 l 6.823594457518236 9.74014561858386 a32.892513527084674,32.892513527084674 0 0,0 -0.466514700070993,0.3208730646169776 l -6.654922872824359 -9.856159472565931" fill="#ff810b" stroke="none" /><path d="M 111.45004920935366 117.60387380957326 l 4.040439520088625 6.2119722060887 a28.41038124557114,28.41038124557114 0 0,0 -0.41224572268143433,0.26311472494658344 l -3.9329119953602594 -6.280601359859093" fill="#ff4106" stroke="none" /><line stroke="#e1ed5e" stroke-width="0.3" x1="143.8653032363475" x2="146.44561519142675" y1="172.8068346515853" y2="177.08958963109032" /><path d="M 144.38136562736335 173.6633856474863 a86.0,86.0 0 0,1 -40.68145358897372,12.25698825130547" fill="none" id="id42" stroke="none" /><text fill="#e1ed5e" style="font-size:6.75px; font-family:Arial;" text-anchor="middle"><textPath startOffset="21.466115282336833" xlink:href="#id42">June</textPath></text><path d="M 110.8373102113329 117.98757091392108 l 6.341444510169888 10.525414572344047 a33.288135350624856,33.288135350624856 0 0,0 -0.49334939212715945,0.2914795168548479 l -6.159327247014347 -10.633012661492646" fill="#ff860c" stroke="none" /><path d="M 110.5260780823613 118.17145234162733 l 7.486269276508555 12.923748456951152 a35.935444481465666,35.935444481465666 0 0,0 -0.5379214897135012,0.30544586074783386 l -7.262699019873855 -13.050697483493614" fill="#ffab0f" stroke="none" /><path d="M 109.89434966115114 118.52300852407294 l 7.266490236490952 13.60344693690107 a36.42256946562736,36.42256946562736 0 0,0 -0.5555466834857676,0.29063576804198066 l -7.031252650478689 -13.726512123887767" fill="#ffb110" stroke="none" /><path d="M 109.2508944713604 118.85261126421891 l 2.3338570088733115 4.756221041195263 a26.297973870318316,26.297973870318316 0 0,0 -0.40810364483798234,0.19591454993988638 l -2.2516406960350968 -4.795689867634709" fill="#ff2203" stroke="none" /><path d="M 108.92500713936063 119.00905698771935 l 1.2882018167521385 2.7436954798984328 a24.031060673608927,24.031060673608927 0 0,0 -0.3759510727112137,0.17258069824602737 l -1.2407827482735052 -2.765463248478534" fill="#ff0100" stroke="none" /><path d="M 107.93186726928326 119.44442032107085 l 4.650946860712276 11.40147238732429 a33.313605454946476,33.313605454946476 0 0,0 -0.532825616827297,0.21202230920308537 l -4.4540001678431125 -11.479841540933444" fill="#ff870c" stroke="none" /><path d="M 104.13013068566511 120.58985236759428 l 1.588264159800427 7.917939421271771 a29.075663918232117,29.075663918232117 0 0,0 -0.4915620151810178,0.09420903013689856 l -1.451734530047705 -7.944105649757137" fill="#ff4b07" stroke="none" /><path d="M 103.41894727170886 120.7198165907248 l 1.9818128714046062 12.010363409938485 a33.17277336912399,33.17277336912399 0 0,0 -0.5641964262901691,0.08811587850098043 l -1.7747805815059199 -12.04269759578657" fill="#ff850c" stroke="none" /><path d="M 103.06178313531738 120.77559828337769 l 2.285664481620635 15.50927841132443 a36.67679747150279,36.67679747150279 0 0,0 -0.6253767876845856,0.08667152432681624 l -2.018359102749219 -15.54632450114385" fill="#ffb410" stroke="none" /><path d="M 102.34483914955558 120.86867818915974 l 1.0450429947362239 9.300708730967477 a30.359235960223565,30.359235960223565 0 0,0 -0.5198186496788286,0.053881328449437244 l -0.8847917484517926 -9.317319427872672" fill="#ff5d08" stroke="none" /><path d="M 101.98527174616119 120.90594882070398 l 0.282683985305737 2.9768100718008905 a23.990202073292632,23.990202073292632 0 0,0 -0.4114384569154757,0.03550064130540609 l -0.23140121064871966 -2.98123496538496" fill="#ff0000" stroke="none" /><line stroke="#e1ed5e" stroke-width="0.3" x1="102.19456741930631" x2="102.32365962044197" y1="184.97166512339345" y2="189.96999836594603" /><path d="M 102.22038585953345 185.97133177190398 a86.0,86.0 0 0,1 -42.740103519485714,-10.115201625700543" fill="none" id="id43" stroke="none" /><text fill="#e1ed5e" style="font-size:6.75px; font-family:Arial;" text-anchor="middle"><textPath startOffset="22.20632615414155" xlink:href="#id43">July</textPath></text><line stroke="#e1ed5e" stroke-width="0.3" x1="58.666819895761336" x2="56.23545636021788" y1="174.27360380694188" y2="178.64263932499728" /><path d="M 58.180547188652646 175.14741091055294 a86.0,86.0 0 0,1 -31.652253787137756,-30.449443065178592" fill="none" id="id44" stroke="none" /><text fill="#e1ed5e" style="font-size:6.75px; font-family:Arial;" text-anchor="middle"><textPath startOffset="22.20632615414155" xlink:href="#id44">August</textPath></text><line stroke="#e1ed5e" stroke-width="0.3" x1="26.63291911575756" x2="22.317208475507996" y1="142.92168965132927" y2="145.44649492493687" /><path d="M 25.769776987707644 143.4266507060508 a86.0,86.0 0 0,1 -11.730757126820373,-40.83630448921669" fill="none" id="id45" stroke="none" /><text fill="#e1ed5e" style="font-size:6.75px; font-family:Arial;" text-anchor="middle"><textPath startOffset="21.46611528233685" xlink:href="#id45">September</textPath></text><line stroke="#e1ed5e" stroke-width="0.3" x1="15.007084014347285" x2="10.007500721073583" y1="101.09737516637583" y2="101.16192664675087" /><path d="M 14.007167355692545 101.11028546245083 a86.0,86.0 0 0,1 10.666146001902534,-42.60595125391555" fill="none" id="id46" stroke="none" /><text fill="#e1ed5e" style="font-size:6.75px; font-family:Arial;" text-anchor="middle"><textPath startOffset="22.20632615414155" xlink:href="#id46">October</textPath></text><line stroke="#e1ed5e" stroke-width="0.3" x1="26.266209847984243" x2="21.928928074336255" y1="57.711370442889674" y2="55.22380399835377" /><path d="M 25.398753493254645 57.213857153982495 a86.0,86.0 0 0,1 29.58750427330803,-30.492523968695096" fill="none" id="id47" stroke="none" /><text fill="#e1ed5e" style="font-size:6.75px; font-family:Arial;" text-anchor="middle"><textPath startOffset="21.46611528233685" xlink:href="#id47">November</textPath></text><line stroke="#e1ed5e" stroke-width="0.3" x1="56.762969772571076" x2="54.21961505331055" y1="26.818313649435495" y2="22.513508569990535" /><path d="M 56.25429882871897 25.957352633546506 a86.0,86.0 0 0,1 42.265352541879196,-11.944610805530505" fill="none" id="id48" stroke="none" /><text fill="#e1ed5e" style="font-size:6.75px; font-family:Arial;" text-anchor="middle"><textPath startOffset="22.20632615414155" xlink:href="#id48">December</textPath></text></svg>