<?xml version="1.0" encoding="utf-8" ?>
<svg baseProfile="full" height="200mm" version="1.1" viewBox="0,0,200,200" width="200mm" xmlns="http://www.w3.org/2000/svg" xmlns:ev="http://www.w3.org/2001/xml-events" xmlns:xlink="http://www.w3.org/1999/xlink"><defs /><rect fill="#1a1a1a" height="200" width="200" x="0" y="0" /><text alignment-baseline="middle" fill="#e1ed5e" style="dominant-baseline: central; font-size:9.0px; font-family:Arial;" text-anchor="middle" x="100.0" y="100.0">2025</text><line stroke="#e1ed5e" stroke-width="0.3" x1="100.0" x2="100.0" y1="15.0" y2="10.0" /><path d="M 100.0 14.0 a86.0,86.0 0 0,1 42.46469731375804,11.215312516191453" fill="none" id="id25" stroke="none" /><text fill="#e1ed5e" style="font-size:6.75px; font-family:Arial;" text-anchor="middle"><textPath startOffset="22.20632615414155" xlink:href="#id25">January</textPath></text><path d="M 100.0 79.0 l 0.0 -26.494458592128808 a47.49445859212881,47.49445859212881 0 0,0 0.8175390311748559,0.007036816547605589 l -0.4560585519023276 26.490533152189762" fill="#ffff18" stroke="none" /><path d="M 100.72285384407766 79.0124445844662 l 1.2213847758700194 -35.46205208325261 a56.483079329816455,56.483079329816455 0 0,0 0.9713991388020888,0.041830490309186064 l -1.8316247470614395 35.43577386641923" fill="#86ff25" stroke="none" /><path d="M 101.44485096284872 79.0497635885617 l 2.9806124953111452 -43.21866962979888 a64.32132795075545,64.32132795075545 0 0,0 1.1039065536521202,0.08568439452915105 l -3.7241092383256063 43.16095997308126" fill="#30ff38" stroke="none" /><path d="M 103.95276090670814 79.375362276772 l 2.005199498464815 -10.462690305515379 a31.6531081594889,31.6531081594889 0 0,0 0.5342345131663373,0.10716241752380469 l -2.1850004210982776 10.426623931914365" fill="#ff0701" stroke="none" /><path d="M 104.307194497241 79.44645832069477 l 4.327541632843185 -20.65063636586321 a42.099203750357574,42.099203750357574 0 0,0 0.7079828624658029,0.15473763192568138 l -4.682367219462516 20.57308523584166" fill="#ffb010" stroke="none" /><path d="M 107.4271985657038 80.35727306442388 l 10.925734838402104 -28.895312829287032 a51.89192103546546,51.89192103546546 0 0,0 0.8327833804504652,0.3231070135487009 l -11.421501383852236 28.702963111847787" fill="#c2ff1e" stroke="none" /><path d="M 107.76421540070413 80.48803036053334 l 7.586262896216068 -19.064763619844467 a41.51868895936214,41.51868895936214 0 0,0 0.6617607099162397,0.2699488093967103 l -7.913307475720695 18.931353924264176" fill="#ffa70f" stroke="none" /><path d="M 108.43124777332544 80.76684994638697 l 11.089269678970119 -25.296562674315936 a48.62042695449367,48.62042695449367 0 0,0 0.7636136293986552,0.342611176708148 l -11.523065426835554 25.101931167091255" fill="#efff19" stroke="none" /><line stroke="#e1ed5e" stroke-width="0.3" x1="143.23703022742887" x2="145.7803849466894" y1="26.81831364943548" y2="22.513508569990506" /><path d="M 143.74570117128098 25.957352633546492 a86.0,86.0 0 0,1 28.547481713284135,27.462654790039103" fill="none" id="id26" stroke="none" /><text fill="#e1ed5e" style="font-size:6.75px; font-family:Arial;" text-anchor="middle"><textPath startOffset="19.985693538727396" xlink:href="#id26">February</textPath></text><path d="M 113.06298171725822 83.55741782278167 l 20.370136329834224 -25.640213529651902 a53.74695411701944,53.74695411701944 0 0,0 0.7194326733240188,0.5817311886391954 l -20.80847240172273 25.285776243748575" fill="#a9ff21" stroke="none" /><path d="M 114.94478906791727 85.2469230424477 l 18.002950308726074 -17.772008033074236 a46.29724272220424,46.29724272220424 0 0,0 0.5549843088185695,0.5719601147355557 l -18.306198881247752 17.459483722788566" fill="#ffee16" stroke="none" /><path d="M 116.38621287248628 86.86637796730983 l 39.92863958781445 -32.00298108578742 a72.17115454737025,72.17115454737025 0 0,0 0.768608772063892,0.9760550870782816 l -40.473602440472305 31.310933604756098" fill="#3cffa2" stroke="none" /><path d="M 116.60985879189232 87.15038557335679 l 24.445528489794494 -18.911395905587618 a51.90671056976511,51.90671056976511 0 0,0 0.5406307840681401,0.711406739805489 l -24.767435214086746 18.487804389901093" fill="#c1ff1e" stroke="none" /><path d="M 117.04232023915458 87.72973835380427 l 20.11815333267497 -14.484823766135989 a45.79012329644689,45.79012329644689 0 0,0 0.45503908902822343,0.6436205211262341 l -20.364505041507076 14.13637674467796" fill="#ffe715" stroke="none" /><path d="M 117.45458315368197 88.32363383020206 l 13.662361722746464 -9.139532970477592 a37.43749344521891,37.43749344521891 0 0,0 0.3537011744427173,0.5387111547190186 l -13.817659532547106 8.9030037517809" fill="#ff6709" stroke="none" /><path d="M 117.65298651832404 88.62581576622439 l 14.787039292276676 -9.527595175346098 a38.59066800484315,38.59066800484315 0 0,0 0.35498343337951627,0.5614985421504737 l -14.948850321902148 9.271648985481418" fill="#ff790b" stroke="none" /><line stroke="#e1ed5e" stroke-width="0.3" x1="172.23445277983987" x2="176.4835382374775" y1="55.19839476539836" y2="52.563006222186495" /><path d="M 173.08426987136738 54.67131705675599 a86.0,86.0 0 0,1 12.851231095245387,41.99856678651699" fill="none" id="id27" stroke="none" /><text fill="#e1ed5e" style="font-size:6.75px; font-family:Arial;" text-anchor="middle"><textPath startOffset="22.20632615414155" xlink:href="#id27">March</textPath></text><path d="M 117.84615892207809 88.93136811851018 l 21.315483233646844 -13.220393156839155 a46.082436498579625,46.082436498579625 0 0,0 0.4122934187886386,0.6777019752333148 l -21.53989245072171 12.851523408398759" fill="#ffeb16" stroke="none" /><path d="M 119.04729006885535 91.15688171328212 l 57.14187020656606 -26.529354860153646 a84.0,84.0 0 0,0 0.5975907321466121,1.3167119646317489 l -57.59006325567602 25.541820886679833" fill="#4dd2ff" stroke="none" /><path d="M 119.196687751892 91.48605970444005 l 22.576021050680367 -10.01271145423788 a45.69678353848107,45.69678353848107 0 0,0 0.31271677737084697,0.7217934375883343 l -22.745028537893894 9.622618872062944" fill="#ffe515" stroke="none" /><path d="M 119.97218684219823 93.5106431181261 l 42.206834574738366 -13.71383186897652 a65.378892160011,65.378892160011 0 0,0 0.33855219046242924,1.0733029614947087 l -42.436642248969 12.985278741055392" fill="#32ff47" stroke="none" /><path d="M 120.67395015179393 96.31383870115 l 60.44416446268485 -10.777182790311572 a82.39743224669809,82.39743224669809 0 0,0 0.23694416899484025,1.3984578980479077 l -60.62072049319991 9.735139103947828" fill="#4be3ff" stroke="none" /><path d="M 120.73433829027371 96.67025291283417 l 12.230865101044158 -1.9641662479686675 a33.38757483003026,33.38757483003026 0 0,0 0.08624186508969096,0.5682261371108853 l -12.262862859573149 1.7533409984656998" fill="#ff2403" stroke="none" /><path d="M 120.96714384426684 98.82574320788733 l 51.124465702485914 -2.863205954047501 a72.20457930400319,72.20457930400319 0 0,0 0.058817134329040524,1.2415367446492556 l -51.16617644504845 1.9827581027752457" fill="#3cffa2" stroke="none" /><line stroke="#e1ed5e" stroke-width="0.3" x1="184.98032266829074" x2="189.97916517819016" y1="98.17113171792111" y2="98.06355123074" /><path d="M 185.9800911702706 98.14961562048488 a86.0,86.0 0 0,1 -9.607161424134198,41.387399972396054" fill="none" id="id28" stroke="none" /><text fill="#e1ed5e" style="font-size:6.75px; font-family:Arial;" text-anchor="middle"><textPath startOffset="21.466115282336823" xlink:href="#id28">April</textPath></text><path d="M 120.99513854157772 99.54816195383933 l 10.254709620507173 -0.22069242123356672 a31.257084115171928,31.257084115171928 0 0,0 0.006946504242213033,0.5380144088756627 l -10.256989131867101 0.044141754297441355" fill="#ff0000" stroke="none" /><line stroke="#e1ed5e" stroke-width="0.3" x1="174.80103733775053" x2="179.2010983576182" y1="140.37084112569926" y2="142.7455964860345" /><path d="M 175.68104954172406 140.8457921977663 a86.0,86.0 0 0,1 -30.038265399797805,32.042727171017184" fill="none" id="id29" stroke="none" /><text fill="#e1ed5e" style="font-size:6.75px; font-family:Arial;" text-anchor="middle"><textPath startOffset="22.206326154141568" xlink:href="#id29">May</textPath></text><line stroke="#e1ed5e" stroke-width="0.3" x1="143.8653032363475" x2="146.44561519142675" y1="172.8068346515853" y2="177.08958963109032" /><path d="M 144.38136562736335 173.6633856474863 a86.0,86.0 0 0,1 -40.68145358897372,12.25698825130547" fill="none" id="id30" stroke="none" /><text fill="#e1ed5e" style="font-size:6.75px; font-family:Arial;" text-anchor="middle"><textPath startOffset="21.466115282336833" xlink:href="#id30">June</textPath></text><line stroke="#e1ed5e" stroke-width="0.3" x1="102.19456741930631" x2="102.32365962044197" y1="184.97166512339345" y2="189.96999836594603" /><path d="M 102.22038585953345 185.97133177190398 a86.0,86.0 0 0,1 -42.740103519485714,-10.115201625700543" fill="none" id="id31" stroke="none" /><text fill="#e1ed5e" style="font-size:6.75px; font-family:Arial;" text-anchor="middle"><textPath startOffset="22.20632615414155" xlink:href="#id31">July</textPath></text><line stroke="#e1ed5e" stroke-width="0.3" x1="58.666819895761336" x2="56.23545636021788" y1="174.27360380694188" y2="178.64263932499728" /><path d="M 58.180547188652646 175.14741091055294 a86.0,86.0 0 0,1 -31.652253787137756,-30.449443065178592" fill="none" id="id32" stroke="none" /><text fill="#e1ed5e" style="font-size:6.75px; font-family:Arial;" text-anchor="middle"><textPath startOffset="22.20632615414155" xlink:href="#id32">August</textPath></text><line stroke="#e1ed5e" stroke-width="0.3" x1="26.63291911575756" x2="22.317208475507996" y1="142.92168965132927" y2="145.44649492493687" /><path d="M 25.769776987707644 143.4266507060508 a86.0,86.0 0 0,1 -11.730757126820373,-40.83630448921669" fill="none" id="id33" stroke="none" /><text fill="#e1ed5e" style="font-size:6.75px; font-family:Arial;" text-anchor="middle"><textPath startOffset="21.46611528233685" xlink:href="#id33">September</textPath></text><line stroke="#e1ed5e" stroke-width="0.3" x1="15.007084014347285" x2="10.007500721073583" y1="101.09737516637583" y2="101.16192664675087" /><path d="M 14.007167355692545 101.11028546245083 a86.0,86.0 0 0,1 10.666146001902534,-42.60595125391555" fill="none" id="id34" stroke="none" /><text fill="#e1ed5e" style="font-size:6.75px; font-family:Arial;" text-anchor="middle"><textPath startOffset="22.20632615414155" xlink:href="#id34">October</textPath></text><line stroke="#e1ed5e" stroke-width="0.3" x1="26.266209847984243" x2="21.928928074336255" y1="57.711370442889674" y2="55.22380399835377" /><path d="M 25.398753493254645 57.213857153982495 a86.0,86.0 0 0,1 29.58750427330803,-30.492523968695096" fill="none" id="id35" stroke="none" /><text fill="#e1ed5e" style="font-size:6.75px; font-family:Arial;" text-anchor="middle"><textPath startOffset="21.46611528233685" xlink:href="#id35">November</textPath></text><line stroke="#e1ed5e" stroke-width="0.3" x1="56.762969772571076" x2="54.21961505331055" y1="26.818313649435495" y2="22.513508569990535" /><path d="M 56.25429882871897 25.957352633546506 a86.0,86.0 0 0,1 42.265352541879196,-11.944610805530505" fill="none" id="id36" stroke="none" /><text fill="#e1ed5e" style="font-size:6.75px; font-family:Arial;" text-anchor="middle"><textPath startOffset="22.20632615414155" xlink:href="#id36">December</textPath></text></svg>